<svg width="777" height="700" viewBox="0 0 777 700" fill="none" xmlns="http://www.w3.org/2000/svg">
<circle cx="388.244" cy="355.244" r="330" fill="#FBCE51"/>
<g style="mix-blend-mode:overlay">
<path d="M530.78 638.3L530.388 637.482L531.885 636.457L527.706 628.106L527.373 630.869L525.468 639.118L525.652 639.574L527.211 639.076L527.603 639.894L523.006 642.227L522.614 641.409L523.87 640.523L518.723 630.079L517.259 630.603L516.867 629.785L521.559 627.477L521.951 628.295L520.6 629.156L524.849 637.628L525.131 635.055L527.087 626.616L526.739 626.013L525.059 626.582L524.667 625.764L529.359 623.456L529.751 624.274L528.4 625.134L533.547 635.578L534.986 635.149L535.378 635.967L530.78 638.3Z" fill="black"/>
<path d="M519.405 643.502C518.897 643.876 518.536 644.084 518.174 644.293C517.813 644.502 517.451 644.711 517.115 644.824C515.72 645.469 514.522 645.759 513.546 645.599C512.57 645.44 511.886 644.951 511.45 643.918C511.084 643.004 511.002 642.168 511.327 641.338C511.651 640.508 512.235 639.85 512.983 639.337C511.95 639.773 511.018 639.829 510.163 639.6C509.333 639.276 508.769 638.717 508.377 637.899C507.802 636.625 507.772 635.598 508.242 634.604C508.712 633.609 509.753 632.768 511.389 631.984C512.086 631.661 512.758 631.434 513.284 631.371C513.836 631.213 514.362 631.151 514.672 631.132C514.983 631.113 515.199 631.069 515.294 631.095L516.291 634.214L515.473 634.606L513.98 632.576C513.289 632.493 512.522 632.695 511.489 633.131C510.696 633.428 510.258 633.922 510.08 634.587C509.902 635.252 510.008 635.994 510.375 636.907C510.697 637.604 511.166 638.137 511.805 638.411C512.445 638.684 513.282 638.602 514.315 638.166L515.47 637.661L515.931 638.599L514.898 639.035C514.441 639.219 514.054 639.522 513.642 639.921C513.324 640.345 513.102 640.795 512.975 641.27C512.942 641.771 512.98 642.392 513.232 642.969C513.529 643.762 514.023 644.199 514.593 644.352C515.163 644.505 515.81 644.373 516.603 644.076C517.085 643.797 517.541 643.614 517.833 643.285C518.125 642.956 518.296 642.696 518.347 642.506L517.994 640.782L519.054 640.251L520.394 642.851C520.274 642.92 519.912 643.129 519.405 643.502Z" fill="black"/>
<path d="M504.181 648.998L505.69 648.689L506.056 649.602L503.679 650.493C503.317 650.702 502.766 650.859 502.189 651.112C501.612 651.365 501.25 651.574 501.009 651.713C499.424 652.307 498.156 652.476 497.301 652.247C496.446 652.018 495.787 651.434 495.446 650.426C495.149 649.633 495.068 648.797 495.367 648.062C495.571 647.302 496.154 646.643 496.877 646.226C495.749 646.636 494.792 646.787 493.962 646.463C493.132 646.139 492.473 645.555 492.132 644.547C491.627 643.393 491.717 642.297 492.308 641.233C492.898 640.169 494.059 639.257 495.98 638.55C496.437 638.367 496.773 638.253 497.204 638.165C498.092 637.893 498.669 637.641 498.884 637.596L501.167 636.68L501.438 637.568L500.018 638.308L504.181 648.998ZM496.277 639.343C495.123 639.848 494.375 640.361 493.981 641.07C493.587 641.779 493.694 642.521 493.965 643.408C494.332 644.322 494.8 644.855 495.44 645.128C496.08 645.401 496.916 645.32 497.95 644.884C499.104 644.378 499.871 644.176 500.233 643.967L498.268 638.756C497.862 638.749 497.285 639.002 496.277 639.343ZM499.54 645.411L498.627 645.778C497.835 646.075 497.302 646.543 497.028 647.183C496.755 647.823 496.767 648.539 497.159 649.357C497.456 650.15 497.924 650.682 498.469 650.93C499.014 651.178 499.85 651.097 500.884 650.661C501.34 650.477 501.702 650.269 502.158 650.085L502.52 649.877L500.669 645.001C500.428 645.14 500.092 645.254 499.54 645.411Z" fill="black"/>
<path d="M489.343 655.717L487.422 656.425L479.012 645.615L477.84 645.81L477.568 644.923L482.273 643.331L482.544 644.219L481.149 644.864L482.851 647.255L488.012 645.48L487.965 642.616L486.361 642.899L486.089 642.011L490.337 640.603L490.609 641.491L489.55 642.022L489.343 655.717ZM487.356 653.25L488.311 654.626L488.174 652.858L488.017 646.602L483.528 648.15L487.356 653.25Z" fill="black"/>
<path d="M474.727 646.402C475.867 646.708 476.741 647.248 477.514 648.167C478.286 649.087 478.912 650.172 479.246 651.586C479.606 652.904 479.68 654.146 479.444 655.407C479.208 656.668 478.643 657.637 477.818 658.435C476.993 659.232 476.004 659.884 474.78 660.269C473.893 660.541 472.72 660.736 471.383 660.785L470.762 660.822L470.005 657.564L471.229 657.178L472.386 659.322C472.576 659.373 472.956 659.475 473.361 659.481C473.767 659.488 474.319 659.331 474.965 659.198C475.732 658.996 476.36 658.553 476.824 657.965C477.287 657.376 477.611 656.546 477.65 655.64C477.689 654.734 477.589 653.586 477.274 652.483C476.958 651.38 476.522 650.346 475.915 649.573C475.307 648.799 474.674 648.12 473.939 647.821C473.205 647.522 472.324 647.388 471.436 647.66C470.79 647.792 470.308 648.07 470.067 648.209C469.826 648.348 469.534 648.678 469.362 648.937L469.138 650.914L467.966 651.109L467.652 648.479C467.867 648.435 468.229 648.226 468.711 647.948C469.098 647.644 469.459 647.435 469.916 647.252C470.277 647.043 470.829 646.886 471.38 646.728C472.439 646.197 473.587 646.097 474.727 646.402Z" fill="black"/>
<path d="M460.64 660.962C460.265 661.982 459.7 662.951 459.021 663.584C458.222 664.286 457.378 664.773 456.421 664.924C455.223 665.214 454.127 665.124 453.202 664.775C452.277 664.425 451.428 663.79 450.751 662.896C450.074 662.001 449.543 660.942 449.304 659.554C448.995 658.045 448.946 656.708 449.157 655.542C449.393 654.281 449.958 653.312 450.688 652.489C451.417 651.666 452.356 651.205 453.459 650.889C454.657 650.599 455.779 650.594 456.799 650.969C457.819 651.344 458.572 651.954 459.275 652.753C459.952 653.647 460.483 654.706 460.722 656.095L463.644 655.452L462.421 650.133L460.843 650.321L460.667 649.459L465.675 648.255L465.851 649.117L464.387 649.641L467.06 660.951L468.518 660.832L468.694 661.694L463.807 662.829L463.63 661.967L465.095 661.443L463.96 656.555L461.012 657.293C461.036 658.725 460.92 659.916 460.64 660.962ZM458.573 661.834C458.999 660.624 459.001 659.097 458.535 657.036C458.087 655.287 457.442 653.892 456.549 653.041C455.657 652.191 454.637 651.816 453.344 652.08C452.145 652.371 451.441 653.099 451.04 654.214C450.64 655.328 450.708 656.976 451.174 659.037C451.622 660.786 452.172 662.156 453.064 663.006C453.931 663.952 454.977 664.232 456.08 663.916C457.348 663.747 458.147 663.044 458.573 661.834Z" fill="black"/>
<path d="M439.366 660.151C438.802 659.592 437.979 658.862 437.112 657.917C436.479 657.238 436.106 656.731 435.777 656.439C435.448 656.147 435.188 655.975 434.998 655.924L434.307 655.841L434.131 654.979L436.381 654.563C436.692 654.545 437.046 654.742 437.445 655.154C437.844 655.567 438.477 656.245 439.154 657.14C439.996 658.18 440.628 658.859 441.192 659.418C441.66 659.95 442.11 660.173 442.541 660.085L443.714 659.889L442.776 654.647L441.128 654.715L440.951 653.853L445.978 652.959L446.129 653.916L444.69 654.345L446.717 665.787L448.244 665.789L448.395 666.746L443.489 667.57L443.389 666.423L444.854 665.899L443.941 660.562L442.337 660.845L439.516 666.812L441.069 666.718L441.22 667.675L436.719 668.507L436.568 667.549L438.008 667.12L441.07 661.014C440.569 660.982 439.955 660.614 439.366 660.151Z" fill="black"/>
<path d="M431.012 655.977C432.006 656.447 432.734 657.151 433.265 658.21C433.822 659.174 434.207 660.398 434.446 661.786C434.685 663.174 434.544 664.461 434.118 665.671C433.718 666.786 433.057 667.729 432.258 668.432C431.363 669.109 430.425 669.57 429.157 669.74C427.243 670.042 425.627 669.609 424.501 668.492C423.374 667.375 422.564 665.834 422.339 663.635C422.125 662.152 422.266 660.865 422.667 659.75C423.093 658.54 423.728 657.692 424.553 656.894C425.447 656.217 426.48 655.781 427.653 655.586C428.921 655.417 430.017 655.507 431.012 655.977ZM431.785 666.777C432.306 665.592 432.498 664.116 432.247 662.012C432.04 660.123 431.49 658.753 430.648 657.713C429.807 656.672 428.787 656.297 427.614 656.492C426.441 656.687 425.572 657.269 425.051 658.454C424.53 659.638 424.313 661.21 424.589 663.219C424.796 665.108 425.346 666.478 426.213 667.423C426.985 668.343 427.98 668.813 429.247 668.644C430.369 668.639 431.263 667.961 431.785 666.777Z" fill="black"/>
<path d="M419.638 669.532L421.14 669.629L421.196 670.56L418.686 670.804C418.281 670.798 417.729 670.955 417.108 670.993C416.461 671.125 416.056 671.118 415.84 671.162C414.167 671.325 412.88 671.184 412.102 670.67C411.323 670.156 410.905 669.433 410.78 668.38C410.698 667.544 410.928 666.688 411.296 666.074C411.664 665.46 412.413 664.947 413.3 664.676C412.153 664.776 411.177 664.616 410.398 664.102C409.619 663.588 409.227 662.77 409.171 661.838C409.097 660.596 409.377 659.55 410.227 658.658C411.078 657.765 412.447 657.216 414.526 657.06C414.957 656.971 415.363 656.978 415.863 657.01C416.795 656.955 417.416 656.917 417.606 656.968L420.116 656.724L420.172 657.656L418.663 657.964L419.638 669.532ZM414.652 658.112C413.409 658.186 412.496 658.553 412.033 659.142C411.475 659.705 411.271 660.465 411.422 661.422C411.478 662.354 411.8 663.052 412.319 663.395C412.839 663.737 413.694 663.967 414.746 663.841C415.988 663.767 416.825 663.685 417.161 663.571L416.705 658.051C416.325 657.949 415.704 657.986 414.652 658.112ZM416.209 664.844L415.157 664.97C414.32 665.051 413.623 665.373 413.28 665.893C412.937 666.412 412.733 667.172 412.815 668.009C412.896 668.846 413.123 669.518 413.643 669.861C414.162 670.203 414.922 670.407 415.974 670.282C416.405 670.193 416.906 670.226 417.363 670.042L417.794 669.954L417.356 664.744C417.046 664.763 416.735 664.781 416.209 664.844Z" fill="black"/>
<path d="M390.286 672.26L390.23 671.328L391.833 671.045L391.48 659.44L389.693 659.267L389.637 658.336L394.865 658.209L394.921 659.14L393.343 659.329L393.671 671.028L399.616 670.89L399.288 659.19L397.596 659.042L397.54 658.11L402.769 657.984L402.825 658.915L401.341 659.129L401.695 670.734L403.267 670.951L403.322 671.883L390.286 672.26Z" fill="black"/>
<path d="M385.878 659.06C386.726 659.695 387.429 660.494 387.839 661.623C388.275 662.656 388.445 663.924 388.469 665.356C388.397 666.763 388.161 668.024 387.571 669.088C386.98 670.152 386.25 670.975 385.286 671.532C384.322 672.088 383.219 672.404 382.097 672.409C380.164 672.4 378.72 671.707 377.714 670.521C376.733 669.24 376.26 667.585 376.25 665.342C376.226 663.909 376.583 662.579 377.173 661.515C377.764 660.451 378.519 659.533 379.483 658.976C380.447 658.42 381.55 658.104 382.767 658.124C383.984 658.145 385.029 658.425 385.878 659.06ZM385.123 669.858C385.809 668.82 386.216 667.299 386.25 665.271C386.234 663.433 385.925 661.924 385.299 660.84C384.673 659.755 383.704 659.19 382.487 659.17C381.27 659.149 380.306 659.706 379.62 660.744C378.935 661.783 378.502 663.399 378.468 665.427C378.459 667.36 378.698 668.748 379.419 669.858C380.045 670.942 381.014 671.507 382.231 671.528C383.404 671.333 384.343 670.871 385.123 669.858Z" fill="black"/>
<path d="M370.371 662.952C370.735 661.216 371.161 660.006 371.795 659.157C372.113 658.733 372.405 658.404 372.766 658.195C373.128 657.986 373.559 657.898 373.964 657.905C374.56 657.963 374.966 657.97 375.251 658.046L375.249 659.573C374.964 659.497 374.463 659.465 373.868 659.407C373.677 659.356 373.462 659.4 373.221 659.539C372.98 659.678 372.834 659.843 372.688 660.007C371.59 661.445 370.991 664.442 370.7 668.947L370.603 670.449L372.745 670.82L372.706 671.726L361.882 671.066L361.921 670.16L363.689 670.023L364.457 658.413L362.601 658.119L362.64 657.213L368.337 657.619L368.298 658.526L366.339 658.612L365.571 670.222L369.386 670.429L369.534 668.737C369.809 666.57 370.033 664.593 370.371 662.952Z" fill="black"/>
<path d="M358.493 669.649L360.013 670.057L359.879 670.937L350.374 669.918L350.447 666.984L351.544 667.074L351.871 668.893L356.49 669.52L357.08 664.279L354.006 663.965L353.599 665.486L352.598 665.421L353.027 661.156L354.029 661.221L354.096 662.869L357.144 663.278L357.715 657.727L352.424 657.328L351.217 659.551L350.127 659.055L350.993 655.824L361.284 656.952L361.15 657.833L359.623 657.831L358.493 669.649Z" fill="black"/>
<path d="M343.057 667.957L346.225 668.297L347.434 664.547L348.599 664.757L347.586 669.68L336.041 667.911L336.554 662.956L337.72 663.166L337.772 667.152L340.984 667.708L342.684 656.042L340.093 655.45L340.227 654.569L347.273 655.642L347.139 656.523L344.731 656.387L343.057 667.957Z" fill="black"/>
<path d="M329.727 658.784L330.608 658.918C330.944 658.804 331.356 658.405 331.699 657.886C332.042 657.367 332.626 656.708 333.14 655.929C333.654 655.151 334.118 654.562 334.435 654.137C334.752 653.713 334.993 653.574 335.184 653.625L337.705 654.097L337.571 654.978L336.83 655.085C336.614 655.129 336.398 655.173 336.107 655.502C335.84 655.736 335.402 656.23 334.939 656.819C334.33 657.572 333.866 658.161 333.454 658.56C333.016 659.054 332.654 659.262 332.198 659.446C333.002 659.865 333.566 660.423 333.888 661.121C334.21 661.818 334.292 662.655 334.132 663.631C333.845 665.082 333.185 666.025 332.272 666.392C331.264 666.733 330.022 666.807 328.381 666.47C328 666.368 327.62 666.266 327.05 666.113C326.48 665.96 326.005 665.833 325.72 665.757L323.103 665.259L323.237 664.378L324.834 664.501L327.078 653.083L325.393 652.53L325.527 651.649L330.951 652.695L330.817 653.575L329.03 653.402L328.137 658.256L329.727 658.784ZM327.184 665.232C327.754 665.385 328.23 665.512 328.61 665.614C329.585 665.774 330.302 665.762 330.904 665.414C331.507 665.066 331.875 664.452 332.06 663.381C332.22 662.405 332.138 661.569 331.695 660.941C331.253 660.313 330.638 659.944 329.688 659.69C328.712 659.53 328.047 659.352 327.736 659.371L326.639 664.984L327.184 665.232Z" fill="black"/>
<path d="M316.603 662.906L319.79 663.556L321.284 659.882L322.519 660.213L321.031 665.009L309.74 662.29L310.659 657.341L311.799 657.647L311.446 661.626L314.582 662.466L317.257 650.961L314.717 650.178L314.946 649.323L321.935 650.992L321.705 651.847L319.253 651.495L316.603 662.906Z" fill="black"/>
<path d="M304.599 647.263C305.397 648.088 305.833 649.122 306.028 650.294C306.223 651.467 306.082 652.754 305.7 654.179C305.344 655.509 304.633 656.643 303.808 657.441C302.957 658.333 301.898 658.864 300.795 659.18C299.597 659.47 298.501 659.38 297.265 659.049C296.315 658.794 295.321 658.324 294.066 657.682L293.522 657.435L294.673 654.28L295.908 654.611L295.677 656.994C295.816 657.235 296.076 657.406 296.431 657.603C296.785 657.8 297.33 658.048 297.9 658.2C298.66 658.404 299.377 658.392 300.144 658.19C300.816 657.963 301.564 657.451 302.078 656.672C302.688 655.918 303.158 654.924 303.463 653.783C303.769 652.643 303.954 651.572 303.924 650.545C303.893 649.519 303.622 648.631 303.204 647.908C302.787 647.185 302.103 646.696 301.153 646.442C300.487 646.263 300.012 646.136 299.607 646.129C299.201 646.122 298.865 646.236 298.624 646.375L297.405 647.882L296.316 647.387L297.479 644.948C297.764 645.024 298.169 645.031 298.67 645.063C299.171 645.096 299.576 645.103 299.982 645.109C300.387 645.116 300.958 645.269 301.528 645.422C302.763 645.753 303.827 646.344 304.599 647.263Z" fill="black"/>
<path d="M286.16 655.258L286.484 654.429L288.315 654.817L291.4 645.967L289.224 647.625L282.013 652.11L281.885 652.585L283.424 653.303L283.1 654.133L278.26 652.429L278.585 651.599L280.035 651.886L283.801 640.876L282.356 640.183L282.681 639.353L287.616 641.083L287.291 641.913L285.65 641.575L282.541 650.52L284.596 648.932L292.023 644.403L292.201 643.738L290.567 642.994L290.891 642.164L295.826 643.894L295.501 644.724L293.955 644.411L290.19 655.422L291.54 656.089L291.215 656.919L286.16 655.258Z" fill="black"/>
<path d="M267.067 648.207L268.72 643.557L269.93 643.983L269.032 647.715L272.776 649.329L277.136 638.377L274.153 636.966L274.477 636.136L281.306 638.781L280.982 639.611L278.986 639.076L274.771 649.864L276.545 650.848L276.221 651.678L267.067 648.207Z" fill="black"/>
<path d="M264.528 645.897L265.731 646.729L265.407 647.559L260.764 645.5L261.088 644.67L262.609 645.077L264.642 640.529L258.625 637.898L256.591 642.446L257.89 643.304L257.565 644.133L253.017 642.1L253.342 641.27L254.767 641.652L259.457 630.991L258.133 630.229L258.458 629.4L263.006 631.433L262.681 632.263L261.186 631.76L258.93 636.758L264.948 639.389L267.204 634.391L265.785 633.604L266.109 632.774L270.847 634.858L270.523 635.688L269.123 635.211L264.528 645.897Z" fill="black"/>
<path d="M246.817 639.012L245.018 638.123L246.726 624.524L245.783 623.864L246.202 623.06L250.604 625.258L250.185 626.062L248.69 625.56L248.236 628.392L253.088 630.813L255.081 628.698L253.687 627.816L254.107 627.011L258.059 628.987L257.64 629.791L256.525 629.391L246.817 639.012ZM247.061 635.818L246.723 637.46L247.891 636.143L252.263 631.61L248.051 629.463L247.061 635.818Z" fill="black"/>
<path d="M239.507 625.239C240.579 623.896 241.55 622.934 242.419 622.352C242.901 622.074 243.237 621.96 243.668 621.872C244.074 621.879 244.454 621.981 244.904 622.203C245.448 622.451 245.778 622.743 246.037 622.914L245.465 624.289C245.206 624.117 244.851 623.92 244.237 623.552C244.072 623.406 243.882 623.355 243.666 623.399C243.451 623.443 243.235 623.487 242.994 623.627C241.453 624.436 239.575 626.886 237.288 630.857L236.526 632.181L238.318 633.476L237.899 634.28L228.513 629.015L228.932 628.211L230.592 628.859L236.276 618.669L234.718 617.64L235.138 616.836L240.198 619.618L239.779 620.422L238.049 619.653L232.391 629.749L235.678 631.546L236.491 630.032C237.38 628.234 238.434 626.581 239.507 625.239Z" fill="black"/>
<path d="M211.458 618.538L211.972 617.759L213.607 618.502L219.81 608.655L218.468 607.582L218.982 606.803L223.586 609.768L223.072 610.547L221.533 609.829L215.329 619.677L216.671 620.749L216.157 621.528L211.458 618.538ZM224.271 620.137C222.973 619.28 222.201 618.36 221.859 617.352C221.518 616.344 221.704 615.273 222.415 614.14C223.151 612.911 224.141 612.26 225.313 612.065C226.486 611.869 227.722 612.201 229.045 612.963C229.21 613.109 229.4 613.159 229.565 613.305C229.729 613.451 229.894 613.597 230.084 613.648C230.673 614.112 231.192 614.455 231.616 614.772L233.788 616.169L233.274 616.948L231.83 616.255L225.626 626.103L226.778 627.124L226.264 627.903L221.73 625.059L222.244 624.28L223.973 625.049L226.278 621.388L224.271 620.137ZM229.614 614.643C229.449 614.497 229.189 614.325 228.74 614.103C227.866 613.563 227.01 613.334 226.243 613.536C225.476 613.738 224.823 614.276 224.163 615.219C223.623 616.093 223.419 616.854 223.621 617.621C223.823 618.388 224.361 619.041 225.235 619.581L226.888 620.635L230.247 615.322C230.038 614.96 229.873 614.814 229.614 614.643Z" fill="black"/>
<path d="M205.02 612.535L206.052 613.626L205.537 614.405L201.46 611.377L201.974 610.598L203.393 611.386L206.42 607.308L201.14 603.448L198.112 607.526L199.143 608.617L198.629 609.396L194.646 606.394L195.161 605.615L196.51 606.282L203.397 596.923L202.34 595.927L202.854 595.148L206.932 598.176L206.418 598.955L205.094 598.193L201.895 602.53L207.176 606.39L210.375 602.052L209.153 600.91L209.668 600.131L213.84 603.184L213.326 603.963L212.003 603.201L205.02 612.535Z" fill="black"/>
<path d="M189.182 602.077L187.606 600.738L192.191 587.809L191.419 586.889L192.002 586.23L195.865 589.302L195.255 590.056L193.957 589.199L192.934 591.878L197.195 595.363L199.656 593.781L198.529 592.665L199.113 592.006L202.551 594.761L201.967 595.419L200.903 594.829L189.182 602.077ZM190.187 599.087L189.564 600.652L190.966 599.602L196.18 596.109L192.508 593.088L190.187 599.087Z" fill="black"/>
<path d="M178.079 591.056L179.389 592.629L178.805 593.287L175.14 589.861L178.901 581.905L180.083 579.777L178.078 581.175L170.487 585.558L166.891 582.252L167.475 581.594L169.172 582.863L175.99 573.384L174.914 572.077L175.498 571.419L179.398 575.112L178.814 575.77L177.446 574.793L172.393 581.485L170.197 584.36L172.607 582.969L181.593 577.941L182.486 578.791L178.641 587.438L177.034 590.776L179.724 588.339L186.024 582.693L184.758 581.335L185.342 580.677L188.938 583.983L188.354 584.642L187.081 583.689L178.079 591.056Z" fill="black"/>
<path d="M161.751 577.106L160.321 575.602L166.445 563.391L165.793 562.401L166.472 561.768L169.896 565.334L169.218 565.967L167.945 565.015L166.541 567.593L170.39 571.476L172.99 570.136L172.009 568.854L172.688 568.221L175.809 571.4L175.13 572.033L174.186 571.373L161.751 577.106ZM163.136 574.218L162.323 575.732L163.864 574.922L169.521 572.058L166.166 568.613L163.136 574.218Z" fill="black"/>
<path d="M155.544 568.72L156.335 569.951L155.656 570.584L154.017 568.719C153.688 568.427 153.384 568.04 153.055 567.748C152.561 567.31 152.092 566.777 151.694 566.364C150.523 565.032 149.922 563.853 149.892 562.826C149.861 561.799 150.401 560.925 151.372 559.963C152.146 559.356 152.894 558.843 153.731 558.762C154.593 558.585 155.474 558.719 156.303 559.044C157.133 559.368 157.887 559.977 158.589 560.777C158.823 561.043 159.058 561.31 159.292 561.576C159.526 561.842 159.665 562.083 159.76 562.109L162.837 559.368L161.249 557.313L161.928 556.68L166.004 561.235L165.325 561.868L164.173 560.847L155.544 568.72ZM157.885 561.505C157.252 560.826 156.448 560.406 155.662 560.298C154.876 560.189 153.843 560.625 152.872 561.587C152.072 562.29 151.679 562.999 151.69 563.715C151.702 564.432 152.094 565.25 152.797 566.049C153.031 566.315 153.36 566.607 153.689 566.899C153.854 567.045 154.019 567.191 154.088 567.312L159.03 562.932C158.796 562.666 158.423 562.158 157.885 561.505Z" fill="black"/>
<path d="M155.844 550.874C156.039 552.047 155.854 553.118 155.264 554.182C154.768 555.271 153.892 556.259 152.826 557.195C151.761 558.132 150.606 558.638 149.434 558.833C148.261 559.028 147.044 559.007 145.955 558.512C144.84 558.111 143.896 557.451 143.055 556.41C142.447 555.637 141.796 554.647 141.195 553.468L140.942 552.891L143.625 550.859L144.397 551.779L142.887 553.615C142.931 553.831 142.95 554.141 143.133 554.598C143.342 554.96 143.62 555.441 143.993 555.949C144.531 556.602 145.145 556.971 145.906 557.174C146.666 557.378 147.503 557.297 148.39 557.025C149.278 556.754 150.242 556.197 151.162 555.425C152.082 554.653 152.786 553.925 153.326 553.051C153.865 552.177 154.19 551.347 154.203 550.536C154.217 549.725 153.92 548.932 153.408 548.184C153.034 547.677 152.61 547.359 152.281 547.067C151.952 546.775 151.666 546.699 151.356 546.718L149.46 547.33L148.809 546.341L151.098 545.019C151.263 545.165 151.592 545.457 152.016 545.774C152.44 546.091 152.795 546.288 153.124 546.58C153.453 546.872 153.757 547.259 154.251 547.697C155.213 548.668 155.744 549.727 155.844 550.874Z" fill="black"/>
<path d="M125.37 532.319L126.118 531.807L127.264 533.234L135.084 527.996L132.34 527.973L123.906 527.139L123.519 527.443L124.233 528.959L123.485 529.471L120.67 525.152L121.418 524.639L122.45 525.731L132.129 519.259L131.389 517.838L132.137 517.326L135.047 521.671L134.299 522.183L133.223 520.876L125.282 526.184L127.836 526.155L136.461 527.04L137.063 526.693L136.254 525.151L137.002 524.639L139.912 528.984L139.164 529.496L138.158 528.31L128.479 534.782L129.123 536.177L128.375 536.689L125.37 532.319Z" fill="black"/>
<path d="M118.747 521.683C118.348 521.271 118.045 520.884 117.715 520.592C117.386 520.3 117.273 519.964 117.038 519.697C116.273 518.372 115.863 517.243 115.832 516.217C115.802 515.19 116.29 514.506 117.254 513.949C118.098 513.462 118.96 513.286 119.815 513.515C120.671 513.744 121.354 514.233 121.987 514.912C121.431 513.948 121.185 512.965 121.414 512.11C121.643 511.255 122.132 510.571 122.881 510.058C123.99 509.337 125.163 509.142 126.183 509.517C127.203 509.893 128.191 510.768 129.19 512.36C129.538 512.963 129.886 513.565 130.043 514.117C130.201 514.668 130.385 515.125 130.498 515.461C130.612 515.797 130.656 516.012 130.63 516.107L127.72 517.467L127.233 516.623L129.003 514.958C128.991 514.242 128.694 513.45 128.112 512.581C127.695 511.858 127.106 511.394 126.51 511.337C125.915 511.279 125.053 511.455 124.209 511.942C123.581 512.385 123.143 512.879 122.87 513.519C122.692 514.184 122.868 515.046 123.45 515.915L124.171 517.025L123.302 517.607L122.746 516.643C122.468 516.161 122.138 515.869 121.714 515.552C121.29 515.234 120.815 515.107 120.314 515.075C119.813 515.042 119.262 515.2 118.659 515.548C117.936 515.966 117.594 516.485 117.441 517.055C117.383 517.651 117.515 518.297 117.933 519.02C118.211 519.502 118.515 519.889 118.869 520.086C119.199 520.378 119.484 520.454 119.699 520.41L121.379 519.842L122.031 520.831L119.665 522.438C119.475 522.387 119.241 522.121 118.747 521.683Z" fill="black"/>
<path d="M111.4 507.288L111.924 508.752L111.106 509.144L109.88 506.88C109.671 506.519 109.393 506.037 109.019 505.529C108.646 505.022 108.437 504.66 108.298 504.419C107.489 502.878 107.199 501.68 107.238 500.774C107.372 499.893 107.861 499.209 108.825 498.653C109.643 498.261 110.41 498.059 111.17 498.263C111.956 498.371 112.64 498.86 113.178 499.514C112.647 498.455 112.401 497.472 112.63 496.617C112.859 495.761 113.348 495.078 114.286 494.616C115.371 493.99 116.518 493.89 117.607 494.385C118.722 494.786 119.754 495.877 120.772 497.78C120.981 498.141 121.164 498.598 121.373 498.959C121.765 499.777 122.018 500.354 122.182 500.5L123.339 502.644L122.521 503.036L121.636 501.78L111.4 507.288ZM114.398 502.183L113.936 501.245C113.519 500.522 113.05 499.989 112.385 499.811C111.72 499.632 111.073 499.765 110.255 500.157C109.532 500.574 108.999 501.042 108.847 501.613C108.694 502.183 108.896 502.95 109.357 503.888C109.566 504.25 109.844 504.732 110.053 505.093L110.262 505.455L114.885 503.027C114.885 503.027 114.676 502.665 114.398 502.183ZM120.049 498.197C119.423 497.113 118.79 496.434 118.055 496.135C117.32 495.836 116.579 495.943 115.735 496.43C114.892 496.917 114.359 497.386 114.276 498.076C114.193 498.767 114.299 499.509 114.856 500.473C115.482 501.557 115.804 502.255 116.013 502.616L120.903 499.954C120.764 499.713 120.511 499.136 120.049 498.197Z" fill="black"/>
<path d="M102.899 493.398L101.976 491.521L111.589 481.874L111.273 480.771L112.091 480.379L114.26 484.831L113.442 485.223L112.582 483.872L110.424 485.84L112.776 490.748L115.648 490.295L115.149 488.736L115.967 488.344L117.857 492.313L117.039 492.705L116.387 491.716L102.899 493.398ZM105.063 491.024L103.731 492.195L105.455 491.842L111.698 490.969L109.6 486.638L105.063 491.024Z" fill="black"/>
<path d="M110.276 477.652C110.091 478.723 109.595 479.812 108.865 480.635C108.136 481.458 107 482.274 105.726 482.85C104.451 483.425 103.183 483.595 101.992 483.479C100.801 483.364 99.6857 482.963 98.7422 482.303C97.7986 481.642 97.052 480.628 96.5464 479.473C96.1799 478.56 95.8643 477.457 95.5997 476.164L95.4674 475.517L98.6376 474.33L99.1432 475.484L97.1389 476.882C97.088 477.072 97.0811 477.478 97.1693 477.909C97.2576 478.34 97.4153 478.891 97.6681 479.468C97.9905 480.166 98.4334 480.794 99.1427 481.188C99.8521 481.582 100.612 481.785 101.544 481.729C102.476 481.673 103.553 481.453 104.707 480.947C105.741 480.511 106.705 479.955 107.504 479.252C108.304 478.55 108.793 477.866 109.022 477.01C109.346 476.181 109.265 475.344 108.873 474.526C108.62 473.949 108.342 473.467 108.107 473.2C107.873 472.934 107.639 472.667 107.259 472.566L105.231 472.531L104.915 471.428L107.527 470.804C107.666 471.045 107.875 471.407 108.179 471.793C108.483 472.18 108.812 472.472 109.02 472.834C109.229 473.195 109.507 473.677 109.76 474.254C110.266 475.408 110.461 476.581 110.276 477.652Z" fill="black"/>
<path d="M94.0851 465.47C93.0143 465.285 92.0198 464.815 91.2664 464.206C90.5129 463.597 89.9309 462.728 89.5899 461.72C89.1793 460.591 89.0538 459.539 89.3339 458.493C89.614 457.448 90.0587 456.549 90.8581 455.846C91.6829 455.049 92.6469 454.492 93.896 454.012C95.3606 453.488 96.6284 453.318 97.8452 453.338C99.0365 453.454 100.151 453.855 101 454.489C101.848 455.124 102.525 456.019 102.961 457.052C103.372 458.181 103.472 459.328 103.287 460.399C103.102 461.47 102.562 462.343 101.737 463.141C100.913 463.939 99.9231 464.59 98.674 465.07L99.748 467.905L104.839 466.009L104.461 464.38L105.349 464.109L107.105 468.959L106.217 469.231L105.477 467.81L94.6225 471.828L94.9313 473.336L94.0437 473.608L92.2621 468.853L93.1497 468.581L93.8896 470.002L98.6449 468.22L97.5709 465.386C96.3727 465.676 95.1305 465.751 94.0851 465.47ZM92.9465 463.638C94.182 463.969 95.7602 463.78 97.7069 462.978C99.4125 462.314 100.643 461.524 101.424 460.511C102.204 459.497 102.389 458.427 101.979 457.298C101.568 456.169 100.72 455.535 99.5794 455.229C98.439 454.924 96.8352 455.207 94.9141 455.914C93.2085 456.578 91.978 457.368 91.2228 458.287C90.442 459.3 90.2824 460.275 90.693 461.404C90.9831 462.602 91.8061 463.332 92.9465 463.638Z" fill="black"/>
<path d="M92.2913 444.415C92.7802 443.731 93.4149 442.883 94.2907 441.895C94.8746 441.237 95.3125 440.743 95.6298 440.319C95.9218 439.989 95.9982 439.704 96.0491 439.514L96.0373 438.798L96.9248 438.527L97.651 440.758C97.7902 440.999 97.5678 441.449 97.2504 441.873C96.9076 442.392 96.3237 443.051 95.4989 443.848C94.6231 444.836 93.9187 445.564 93.4554 446.153C92.992 446.742 92.8647 447.217 92.9784 447.553L93.294 448.656L98.404 447.071L98.1462 445.373L99.0338 445.101L100.574 449.996L99.6867 450.267L99.0419 448.872L87.9343 452.313L88.148 453.796L87.2604 454.067L85.7894 449.294L86.6771 449.022L87.3218 450.417L92.4318 448.832L91.933 447.273L85.6422 445.282L85.9254 446.885L85.0378 447.157L83.6806 442.719L84.5682 442.447L85.2384 443.747L91.6684 445.98C91.5547 445.644 91.828 445.004 92.2913 444.415Z" fill="black"/>
<path d="M95.2807 435.539C94.9056 436.559 94.2708 437.408 93.3764 438.085C92.482 438.762 91.3025 439.363 89.9838 439.722C88.5701 440.056 87.3279 440.131 86.162 439.92C84.9961 439.71 84.0271 439.145 83.2041 438.415C82.3811 437.685 81.8246 436.721 81.5345 435.523C81.017 433.653 81.2344 432.081 82.212 430.713C83.1642 429.441 84.6356 428.511 86.7214 427.949C88.1351 427.615 89.4723 427.566 90.6382 427.777C91.8041 427.987 92.8681 428.578 93.6911 429.308C94.5141 430.037 95.0707 431.001 95.3608 432.199C95.6509 433.398 95.6559 434.519 95.2807 435.539ZM84.6247 437.675C85.8346 438.101 87.3875 438.008 89.3527 437.516C91.1974 437.094 92.5229 436.328 93.3732 435.436C94.2235 434.543 94.5291 433.403 94.2136 432.3C93.9235 431.101 93.1005 430.372 91.8905 429.945C90.6805 429.519 89.0326 429.587 87.0674 430.079C85.2226 430.502 83.8972 431.267 83.0469 432.159C82.1965 433.052 81.9164 434.097 82.2065 435.296C82.7122 436.45 83.5097 437.274 84.6247 437.675Z" fill="black"/>
<path d="M80.4305 425.958L80.5237 427.511L79.6616 427.688L79.1069 425.196C79.0187 424.765 78.8609 424.214 78.7031 423.662C78.5454 423.11 78.3621 422.654 78.3434 422.343C77.9906 420.619 78.0111 419.402 78.3353 418.572C78.6595 417.743 79.408 417.23 80.3906 416.984C81.2527 416.808 82.0384 416.916 82.7732 417.215C83.4826 417.609 84.046 418.167 84.4379 418.985C84.1478 417.787 84.1869 416.881 84.6062 416.077C85.0254 415.272 85.7739 414.76 86.731 414.609C87.9292 414.319 89.0951 414.529 90.0131 415.285C90.9566 415.945 91.6964 417.365 92.0934 419.305C92.1816 419.736 92.2698 420.167 92.263 420.573C92.4139 421.53 92.5717 422.081 92.6158 422.297L93.196 424.693L92.3339 424.87L91.8096 423.405L80.4305 425.958ZM84.6753 421.901L84.4293 420.918C84.2528 420.056 83.905 419.454 83.2907 419.085C82.7714 418.743 81.9857 418.634 81.0981 418.905C80.236 419.082 79.6335 419.43 79.3857 419.974C79.1378 420.519 79.0291 421.305 79.2497 422.382C79.3379 422.814 79.4261 423.245 79.6093 423.701L79.723 424.037L84.8008 422.953C84.8517 422.763 84.738 422.427 84.6753 421.901ZM91.1108 419.551C90.8207 418.353 90.4287 417.535 89.7448 417.046C89.156 416.583 88.3702 416.474 87.3876 416.72C86.4305 416.871 85.8025 417.314 85.5547 417.859C85.2118 418.378 85.1727 419.284 85.3932 420.362C85.6833 421.56 85.8598 422.422 85.9734 422.758L91.3872 421.56C91.4636 421.275 91.3313 420.629 91.1108 419.551Z" fill="black"/>
<path d="M73.9688 397.235L74.926 397.084L75.4248 398.643L86.9107 396.832L86.8684 395.089L87.8256 394.938L88.6686 400.155L87.7114 400.306L87.3076 398.772L75.8217 400.583L76.7716 406.542L88.3525 404.756L88.3102 403.013L89.2674 402.862L90.0154 408.053L89.0582 408.204L88.6289 406.765L77.143 408.576L77.1158 410.199L76.1586 410.35L73.9688 397.235Z" fill="black"/>
<path d="M86.6007 391.147C86.156 392.046 85.3312 392.844 84.3672 393.4C83.4032 393.957 82.1795 394.342 80.7218 394.461C79.264 394.579 77.9776 394.438 76.8627 394.038C75.7477 393.637 74.8042 392.977 74.1271 392.082C73.4501 391.188 73.014 390.154 72.914 389.007C72.7071 387.118 73.14 385.503 74.2568 384.376C75.3736 383.249 76.9842 382.56 79.1836 382.335C80.6414 382.216 81.9277 382.357 83.0427 382.758C84.1576 383.158 85.1011 383.819 85.8732 384.739C86.5502 385.633 86.9863 386.667 87.0863 387.814C87.2305 389.177 87.0454 390.247 86.6007 391.147ZM75.7564 391.704C76.9154 392.32 78.4173 392.417 80.4962 392.261C82.3851 392.054 83.7292 391.6 84.7696 390.758C85.7845 390.011 86.2547 389.017 86.0851 387.749C85.985 386.602 85.308 385.708 84.1489 385.091C82.9899 384.475 81.393 384.353 79.4091 384.534C77.5202 384.741 76.0811 385.17 75.1357 386.038C74.1208 386.784 73.7457 387.804 73.9153 389.072C73.9898 390.314 74.6669 391.209 75.7564 391.704Z" fill="black"/>
<path d="M80.6926 376.322C82.3846 376.47 83.7405 376.732 84.6399 377.176C85.0897 377.399 85.4188 377.691 85.653 377.957C85.8617 378.319 85.9754 378.655 86.0636 379.086C86.1009 379.707 86.0941 380.112 86.0177 380.397L84.5344 380.611C84.5158 380.301 84.5226 379.895 84.5108 379.179C84.4667 378.963 84.4226 378.748 84.258 378.602C84.0934 378.456 83.9288 378.31 83.6691 378.138C82.1554 377.325 79.082 377.011 74.5186 377.316L73.0608 377.435L73.0012 379.558L72.0695 379.614L71.3916 368.839L72.3233 368.783L72.6762 370.508L84.2876 369.748L84.3658 367.936L85.2975 367.88L85.7026 373.591L84.7709 373.646L84.469 371.732L72.8831 372.396L73.0813 376.218L74.7292 376.15C77.0677 376.166 79.0007 376.175 80.6926 376.322Z" fill="black"/>
<path d="M72.5241 365.374L72.3067 366.945L71.375 367.001L71.1773 357.476L74.1183 357.143L74.1488 358.17L72.3736 358.713L72.3426 363.39L77.5713 363.263L77.48 360.183L75.9085 359.966L75.878 358.939L80.175 358.868L80.2054 359.895L78.6017 360.178L78.5726 363.328L84.1118 363.182L83.7949 357.903L81.4005 356.955L81.706 355.815L84.944 356.275L85.1281 366.612L84.1964 366.668L84.0081 365.09L72.5241 365.374Z" fill="black"/>
<path d="M72.308 349.834L72.3739 353.009L76.2517 353.742L76.2312 354.959L71.2503 354.541L71.5178 342.899L76.5309 342.817L76.5105 344.034L72.5868 344.612L72.4372 347.831L84.1995 348.029L84.4119 345.336L85.3181 345.375L85.1512 352.46L84.245 352.421L84.0958 349.937L72.308 349.834Z" fill="black"/>
<path d="M79.7339 335.425L79.6948 336.331C79.9035 336.692 80.2327 336.984 80.847 337.353C81.3663 337.695 82.0757 338.089 82.9751 338.534C83.8745 338.979 84.4888 339.347 84.9385 339.569C85.3882 339.792 85.6224 340.058 85.5714 340.248L85.41 342.751L84.5038 342.712L84.3969 341.971C84.3528 341.755 84.1882 341.609 83.954 341.343C83.5994 341.146 83.1751 340.828 82.4912 340.339C81.6869 339.92 81.098 339.457 80.5788 339.114C80.0595 338.771 79.7557 338.384 79.547 338.023C79.2228 338.853 78.7595 339.441 78.011 339.954C77.288 340.371 76.521 340.573 75.5197 340.509C74.0178 340.412 73.0233 339.942 72.4668 338.978C71.9102 338.014 71.7406 336.746 71.863 335.149C71.8698 334.743 71.9716 334.363 72.0294 333.768C72.0871 333.172 72.2145 332.697 72.1958 332.386L72.4082 329.693L73.3144 329.732L73.4076 331.285L85.0172 332.053L85.2855 330.291L86.1917 330.331L85.8366 335.837L84.9303 335.798L84.9135 333.96L79.9072 333.638L79.7339 335.425ZM72.9611 333.712C72.8083 334.282 72.776 334.782 72.7692 335.188C72.7046 336.189 72.8115 336.931 73.2798 337.464C73.7482 337.997 74.3879 338.27 75.4842 338.36C76.4855 338.425 77.2526 338.223 77.8805 337.78C78.5085 337.337 78.7122 336.577 78.8718 335.601C78.9364 334.6 78.9941 334.004 78.9059 333.573L73.2089 333.167L72.9611 333.712Z" fill="black"/>
<path d="M73.9056 322.964L73.661 326.158L77.4623 327.177L77.3468 328.368L72.3728 327.544L73.6415 315.967L78.6478 316.29L78.5323 317.481L74.6155 317.654L74.1553 320.892L85.8276 322.186L86.3251 319.569L87.2058 319.704L86.4178 326.826L85.537 326.692L85.578 324.258L73.9056 322.964Z" fill="black"/>
<path d="M88.0299 309.026C87.3001 309.849 86.3106 310.5 85.2075 310.816C84.1043 311.131 82.7671 311.18 81.4111 310.919C80.0552 310.657 78.8452 310.231 77.9272 309.476C77.0091 308.721 76.237 307.801 75.8264 306.672C75.4158 305.544 75.3158 304.397 75.5518 303.136C75.7114 302.16 76.017 301.019 76.5381 299.835L76.7859 299.29L80.068 299.966L79.832 301.227L77.3729 301.281C77.227 301.446 77.0555 301.705 76.8332 302.155C76.6363 302.51 76.4835 303.08 76.4258 303.675C76.3171 304.461 76.4239 305.203 76.7463 305.9C77.0687 306.598 77.6321 307.156 78.506 307.696C79.2849 308.21 80.3303 308.49 81.5912 308.726C82.7571 308.937 83.7838 308.906 84.836 308.781C85.7931 308.63 86.7062 308.263 87.3596 307.726C88.013 307.188 88.4068 306.478 88.5664 305.503C88.6497 304.812 88.6819 304.311 88.6633 304.001C88.6446 303.69 88.531 303.354 88.3223 302.993L86.6694 301.939L86.975 300.798L89.49 301.676C89.4136 301.961 89.5272 302.297 89.59 302.823C89.6782 303.254 89.6459 303.755 89.7341 304.186C89.8223 304.617 89.695 305.092 89.6118 305.783C89.2808 307.018 88.7851 308.108 88.0299 309.026Z" fill="black"/>
<path d="M77.7963 291.718L78.6771 291.852L78.5038 293.639L87.6593 295.583L85.735 293.642L80.3813 287.012L79.9062 286.885L79.3783 288.475L78.4975 288.341L79.5365 283.323L80.4173 283.457L80.3204 284.959L91.6872 287.394L92.1896 285.898L93.0449 286.128L91.9804 291.241L91.1251 291.012L91.2729 289.32L81.9273 287.325L83.7821 289.146L89.2053 295.896L89.8706 296.074L90.424 294.389L91.3047 294.523L90.2402 299.636L89.3595 299.502L89.4818 297.905L78.115 295.47L77.638 296.87L76.7573 296.736L77.7963 291.718Z" fill="black"/>
<path d="M82.3767 271.963L87.1793 273.046L86.8483 274.281L83.0842 273.884L81.9197 277.85L93.3746 280.715L94.405 277.63L95.2603 277.86L93.471 284.917L92.6157 284.688L92.9604 282.642L81.6955 279.827L80.9961 281.677L80.1408 281.448L82.3767 271.963Z" fill="black"/>
<path d="M84.3574 269.132L83.6903 270.482L82.835 270.252L84.3492 265.362L85.2045 265.591L84.9872 267.162L89.7829 268.651L91.6791 262.335L86.8833 260.846L86.2163 262.195L85.361 261.966L86.8497 257.17L87.705 257.399L87.5131 258.876L98.6252 262.261L99.1972 260.886L100.053 261.115L98.5638 265.911L97.7085 265.682L98.0209 264.136L92.845 262.545L90.9488 268.862L96.1247 270.452L96.7222 268.982L97.5775 269.212L96.0633 274.103L95.208 273.873L95.4949 272.422L84.3574 269.132Z" fill="black"/>
<path d="M88.8918 250.689L89.6166 248.744L103.268 248.735L103.858 247.671L104.688 247.996L103.035 252.645L102.205 252.321L102.518 250.775L99.5833 250.702L97.8027 255.827L100.088 257.56L100.781 256.116L101.611 256.44L100.18 260.64L99.35 260.316L99.5605 259.15L88.8918 250.689ZM92.162 250.649L90.4701 250.501L91.9328 251.504L96.9287 255.287L98.5311 250.827L92.162 250.649Z" fill="black"/>
<path d="M101.787 241.718C103.275 242.626 104.383 243.432 104.991 244.206C105.295 244.593 105.478 245.049 105.591 245.385C105.68 245.816 105.578 246.197 105.476 246.577C105.228 247.121 105.031 247.476 104.86 247.736L103.46 247.259C103.631 246.999 103.759 246.524 104.006 245.979C104.057 245.789 104.134 245.504 104.064 245.383C104.02 245.168 103.881 244.927 103.742 244.686C102.691 243.284 100.07 241.665 95.8253 240.018L94.4508 239.446L93.4408 241.315L92.611 240.99L96.622 230.963L97.4519 231.287L96.9935 232.998L107.756 237.307L108.594 235.699L109.424 236.023L107.282 241.357L106.452 241.032L106.962 239.132L96.1991 234.822L94.7563 238.306L96.3209 238.929C98.4744 240.015 100.299 240.81 101.787 241.718Z" fill="black"/>
<path d="M104.797 225.922C105.464 224.572 106.22 223.654 107.253 223.218C108.287 222.782 109.288 222.847 110.472 223.368C111.727 224.01 112.619 224.86 112.909 226.058C113.225 227.161 113.084 228.448 112.417 229.797C112.366 229.987 112.22 230.151 112.169 230.341C112.023 230.506 111.972 230.696 111.801 230.956C111.432 231.57 111.184 232.115 110.937 232.659L109.92 234.933L109.116 234.514L109.618 233.019L99.0338 228.044L98.1767 229.342L97.3723 228.923L99.5772 224.115L100.382 224.535L99.8027 226.315L103.685 228.17L104.797 225.922ZM104.8 212.987L105.604 213.406L105.051 215.091L115.54 220.04L116.448 218.552L117.253 218.971L114.902 223.944L114.097 223.524L114.651 221.839L104.162 216.89L103.254 218.378L102.449 217.959L104.8 212.987ZM110.971 230.631C111.117 230.467 111.219 230.087 111.415 229.732C111.86 228.833 111.899 227.926 111.602 227.134C111.305 226.341 110.647 225.757 109.653 225.287C108.753 224.843 107.847 224.803 107.175 225.031C106.477 225.353 105.919 225.917 105.474 226.816L104.705 228.545L110.412 231.195C110.653 231.056 110.825 230.796 110.971 230.631Z" fill="black"/>
<path d="M109.86 205.888L108.933 207.066L108.129 206.647L110.637 202.226L111.442 202.645L110.844 204.115L115.29 206.528L118.466 200.759L114.02 198.345L113.093 199.523L112.289 199.104L114.677 194.752L115.481 195.172L115.004 196.572L125.195 202.256L126.121 201.078L126.926 201.498L124.512 205.944L123.708 205.525L124.305 204.055L119.504 201.444L116.329 207.214L121.13 209.825L122.107 208.457L122.912 208.876L120.377 213.392L119.573 212.973L120.145 211.598L109.86 205.888Z" fill="black"/>
<path d="M118.284 188.894L119.363 187.147L132.725 190.116L133.481 189.198L134.26 189.712L131.612 193.892L130.833 193.377L131.525 191.933L128.674 191.169L125.804 195.799L127.652 198.025L128.699 196.778L129.478 197.292L127.148 201.048L126.369 200.534L126.865 199.444L118.284 188.894ZM121.376 189.519L119.76 189.086L120.956 190.324L125.076 195.094L127.578 191.079L121.376 189.519Z" fill="black"/>
<path d="M127.849 176.383L126.51 177.959L125.731 177.445L128.639 173.437L136.97 176.178L139.269 177.1L137.63 175.235L132.283 168.2L135.19 164.192L135.969 164.706L134.985 166.479L145.321 171.999L146.463 170.777L147.242 171.291L144.017 175.724L143.239 175.21L144.052 173.696L136.724 169.492L133.532 167.72L135.285 169.921L141.422 178.186L140.737 179.225L131.69 176.495L128.13 175.337L130.858 177.698L137.234 183.175L138.427 181.763L139.206 182.278L136.419 186.216L135.64 185.702L136.427 184.283L127.849 176.383Z" fill="black"/>
<path d="M139.557 158.538L140.801 156.936L153.756 161.426L154.581 160.628L155.335 161.237L152.263 165.1L151.509 164.49L152.366 163.192L149.687 162.168L146.297 166.455L147.904 168.821L149.021 167.694L149.774 168.303L147.02 171.741L146.266 171.132L146.857 170.068L139.557 158.538ZM142.573 159.447L141.008 158.825L142.059 160.226L145.551 165.44L148.477 161.742L142.573 159.447Z" fill="black"/>
<path d="M147.101 151.29L145.94 152.201L145.187 151.592L146.818 149.686C147.11 149.357 147.402 149.028 147.599 148.673C148.037 148.179 148.38 147.66 148.817 147.166C149.985 145.85 151.12 145.033 152.078 144.882C153.035 144.731 154.055 145.107 155.042 145.982C155.796 146.592 156.308 147.34 156.58 148.228C156.851 149.115 156.838 149.926 156.608 150.782C156.379 151.637 155.934 152.537 155.23 153.264C154.964 153.499 154.767 153.853 154.5 154.088C154.234 154.322 154.088 154.486 154.062 154.581L157.215 157.26L159.011 155.5L159.669 156.084L155.677 160.718L155.019 160.134L155.876 158.836L147.101 151.29ZM154.572 152.681C155.181 151.927 155.505 151.097 155.424 150.261C155.342 149.424 154.855 148.581 153.798 147.584C152.975 146.854 152.24 146.556 151.499 146.663C150.757 146.769 150.129 147.212 149.279 148.105C148.987 148.434 148.79 148.789 148.498 149.118C148.327 149.378 148.206 149.447 148.181 149.542L153.239 153.852C153.575 153.738 153.988 153.339 154.572 152.681Z" fill="black"/>
<path d="M164.938 149.346C163.835 149.662 162.738 149.572 161.598 149.266C160.483 148.866 159.419 148.275 158.362 147.279C157.4 146.308 156.653 145.293 156.268 144.07C155.857 142.941 155.878 141.724 156.088 140.558C156.394 139.418 156.89 138.328 157.835 137.461C158.539 136.733 159.339 136.031 160.569 135.24L161.076 134.867L163.374 137.316L162.524 138.208L160.421 136.932C160.206 136.976 159.87 137.09 159.508 137.299C159.147 137.507 158.734 137.906 158.322 138.305C157.763 138.868 157.465 139.603 157.381 140.294C157.273 141.079 157.475 141.846 157.841 142.76C158.233 143.578 158.91 144.472 159.803 145.322C160.6 146.147 161.569 146.712 162.469 147.157C163.368 147.602 164.249 147.736 165.086 147.655C165.922 147.573 166.645 147.156 167.324 146.523C167.762 146.029 168.079 145.605 168.251 145.345C168.422 145.085 168.524 144.705 168.505 144.395L167.677 142.543L168.597 141.771L170.255 143.947C170.109 144.111 169.912 144.466 169.664 145.011C169.442 145.461 169.245 145.815 169.048 146.17C168.851 146.525 168.534 146.949 168.096 147.443C167.03 148.379 165.946 149.005 164.938 149.346Z" fill="black"/>
<path d="M176.007 119.82L176.64 120.499L175.447 121.911L181.725 128.89L181.342 126.139L180.959 117.684L180.655 117.297L179.279 118.253L178.646 117.574L182.522 114.131L183.155 114.809L182.229 115.987L189.982 124.685L191.238 123.8L191.871 124.478L187.994 127.921L187.361 127.243L188.504 126.021L182.155 118.921L182.59 121.482L182.922 130.127L183.39 130.66L184.792 129.61L185.425 130.289L181.523 133.827L180.89 133.148L181.912 131.996L174.158 123.297L172.928 124.088L172.295 123.409L176.007 119.82Z" fill="black"/>
<path d="M185.688 111.821C186.005 111.397 186.322 110.973 186.614 110.644C186.906 110.314 187.173 110.08 187.439 109.846C188.625 108.84 189.78 108.334 190.737 108.183C191.694 108.032 192.498 108.451 193.201 109.251C193.808 110.025 194.105 110.817 193.971 111.698C193.837 112.579 193.538 113.314 192.929 114.067C193.823 113.39 194.736 113.024 195.617 113.158C196.523 113.197 197.233 113.591 197.84 114.365C198.682 115.405 198.997 116.508 198.812 117.579C198.627 118.65 197.821 119.758 196.394 120.903C195.861 121.372 195.258 121.719 194.776 121.998C194.294 122.276 193.838 122.459 193.502 122.573C193.166 122.687 192.95 122.731 192.925 122.826L191.109 120.098L191.883 119.491L193.814 121.027C194.461 120.895 195.279 120.503 196.078 119.8C196.732 119.262 197.1 118.648 197.063 118.027C197.051 117.311 196.823 116.638 196.121 115.839C195.678 115.211 195.064 114.843 194.373 114.76C193.682 114.676 192.89 114.973 191.995 115.65L190.955 116.492L190.252 115.693L191.052 114.99C191.439 114.686 191.756 114.262 191.978 113.812C192.201 113.363 192.328 112.888 192.265 112.361C192.203 111.835 191.924 111.353 191.551 110.846C191.013 110.193 190.494 109.85 189.873 109.887C189.252 109.924 188.675 110.177 188.047 110.62C187.634 111.019 187.342 111.348 187.05 111.677C186.758 112.006 186.777 112.317 186.821 112.532L187.631 114.073L186.711 114.846L184.742 112.688C184.983 112.549 185.275 112.22 185.688 111.821Z" fill="black"/>
<path d="M198.875 102.521L197.454 103.261L196.942 102.512L198.972 101.019C199.333 100.81 199.745 100.411 200.253 100.038C200.665 99.6393 201.052 99.3355 201.293 99.1964C202.695 98.146 203.849 97.6404 204.755 97.6795C205.662 97.7186 206.466 98.1379 207.074 98.9118C207.586 99.6602 207.788 100.427 207.774 101.239C207.761 102.05 207.367 102.759 206.783 103.417C207.703 102.645 208.685 102.399 209.592 102.439C210.498 102.478 211.277 102.992 211.789 103.74C212.536 104.755 212.756 105.833 212.546 106.999C212.335 108.165 211.314 109.317 209.645 110.601C209.258 110.905 208.897 111.114 208.535 111.323C207.692 111.81 207.279 112.208 207.064 112.252L205.034 113.746L204.522 112.997L205.613 111.965L198.875 102.521ZM204.278 104.783L205.147 104.201C205.895 103.689 206.264 103.075 206.321 102.479C206.379 101.883 206.177 101.116 205.665 100.368C205.152 99.6193 204.633 99.2764 204.037 99.2187C203.442 99.1609 202.649 99.4578 201.875 100.065C201.488 100.369 201.127 100.578 200.835 100.907L200.568 101.141L203.625 105.321C203.529 105.296 203.891 105.087 204.278 104.783ZM209.063 109.732C210.078 108.986 210.687 108.232 210.796 107.447C210.905 106.661 210.703 105.894 210.19 105.145C209.583 104.371 208.994 103.908 208.398 103.85C207.708 103.767 207.01 104.09 206.116 104.767C205.101 105.513 204.473 105.956 204.207 106.19L207.471 110.732C207.687 110.688 208.194 110.314 209.063 109.732Z" fill="black"/>
<path d="M211.436 92.1355L213.173 90.9715L224.109 99.1981L225.168 98.667L225.68 99.4155L221.576 102.186L221.064 101.438L222.25 100.432L219.99 98.6038L215.404 101.653L216.193 104.411L217.614 103.671L218.126 104.419L214.409 106.887L213.897 106.138L214.722 105.341L211.436 92.1355ZM214.102 93.9703L212.759 92.8976L213.328 94.5778L215.063 100.645L219.021 98.0386L214.102 93.9703Z" fill="black"/>
<path d="M228.009 97.1874C226.887 97.1924 225.867 96.8173 224.803 96.2266C223.859 95.5664 222.992 94.621 222.202 93.3906C221.506 92.1856 221.121 90.962 221.021 89.8148C220.921 88.6675 221.252 87.4321 221.817 86.4631C222.408 85.3991 223.233 84.6016 224.342 83.8804C225.186 83.3934 226.22 82.9574 227.564 82.5027L228.141 82.2499L229.69 85.2114L228.605 85.8375L226.941 84.0673C226.751 84.0164 226.415 84.1301 225.983 84.2183C225.552 84.3065 225.07 84.5848 224.588 84.863C223.865 85.2805 223.402 85.8693 223.129 86.5091C222.83 87.2439 222.721 88.0296 222.872 88.9868C223.023 89.9439 223.459 90.9775 224.111 91.9669C224.763 92.9564 225.44 93.8508 226.193 94.4601C226.946 95.0694 227.751 95.4886 228.606 95.7178C229.461 95.947 230.229 95.7451 231.072 95.2581C231.675 94.9103 232.062 94.6065 232.233 94.3469C232.499 94.1127 232.696 93.7581 232.773 93.473L232.496 91.4636L233.555 90.9325L234.516 93.4307C234.275 93.5698 234.008 93.804 233.691 94.2282C233.399 94.5574 233.107 94.8867 232.72 95.1904C232.428 95.5196 231.946 95.7979 231.464 96.0762C230.329 96.8923 229.13 97.1824 228.009 97.1874Z" fill="black"/>
<path d="M237.758 79.4285C237.848 78.3322 238.128 77.2868 238.668 76.4128C239.208 75.5389 239.887 74.9059 240.851 74.3494C241.935 73.7233 243.013 73.5027 244.014 73.5673C245.015 73.6319 246.035 74.007 246.858 74.7368C247.681 75.4666 248.453 76.3865 249.174 77.4965C249.94 78.8219 250.299 80.1406 250.374 81.3829C250.448 82.6251 250.263 83.696 249.698 84.6649C249.133 85.6339 248.429 86.3619 247.465 86.9185C246.38 87.5446 245.303 87.7651 244.206 87.6751C243.205 87.6105 242.185 87.2353 241.337 86.6006C240.488 85.9658 239.621 85.0205 239.02 83.8409L236.395 85.2764L238.988 90.0454L240.478 89.4261L240.87 90.2441L236.342 92.6977L235.95 91.8797L237.206 90.9939L231.698 80.7584L230.233 81.2827L229.746 80.4392L234.154 78.0552L234.641 78.8987L233.385 79.7845L235.769 84.1919L238.489 82.7819C237.958 81.7229 237.738 80.6452 237.758 79.4285ZM239.521 78.1694C239.38 79.4557 239.784 80.9899 240.828 82.7974C241.732 84.3639 242.643 85.5247 243.802 86.1409C244.961 86.757 245.963 86.8216 247.142 86.2209C248.201 85.6898 248.767 84.7208 248.787 83.5041C248.807 82.2873 248.404 80.7531 247.455 78.9711C246.551 77.4046 245.64 76.2437 244.576 75.6531C243.511 75.0624 242.415 74.9723 241.356 75.5034C240.297 76.0345 239.662 76.883 239.521 78.1694Z" fill="black"/>
<path d="M258.481 74.694C259.191 75.0878 260.065 75.6275 261.224 76.2437C262.003 76.7579 262.522 77.1008 262.972 77.3231C263.421 77.5455 263.611 77.5964 263.827 77.5523L264.569 77.4455L264.96 78.2635L262.868 79.2306C262.627 79.3698 262.247 79.2679 261.702 79.0201C261.157 78.7723 260.473 78.2835 259.53 77.6232C258.517 76.8425 257.643 76.3027 257.029 75.9344C256.414 75.5661 255.914 75.5338 255.578 75.6475L254.519 76.1786L256.801 80.9662L258.36 80.4674L258.752 81.2854L254.085 83.498L253.693 82.68L255.019 81.9147L250.088 71.4264L248.649 71.8556L248.257 71.0376L252.803 68.8946L253.195 69.7126L251.845 70.5729L254.101 75.4556L255.522 74.7158L256.658 68.1958L255.098 68.6946L254.706 67.8765L258.891 65.9422L259.283 66.7603L258.053 67.551L256.676 74.2102C257.081 74.217 257.747 74.3952 258.481 74.694Z" fill="black"/>
<path d="M267.688 76.4477C266.617 76.2626 265.743 75.7229 264.946 74.898C264.148 74.0732 263.401 73.0583 262.852 71.6887C262.302 70.3191 262.012 69.121 262.127 67.9296C262.243 66.7383 262.523 65.6929 263.183 64.7494C263.843 63.8059 264.738 63.1288 265.771 62.6928C267.597 61.9598 269.125 61.9616 270.569 62.6542C272.013 63.3467 273.159 64.774 273.961 66.7206C274.511 68.0902 274.775 69.3834 274.66 70.5747C274.544 71.7661 274.239 72.9065 273.579 73.85C272.918 74.7935 272.024 75.4706 270.99 75.9066C269.811 76.5073 268.759 76.6328 267.688 76.4477ZM264.088 66.3159C263.852 67.5768 264.16 69.0855 264.868 71.0066C265.626 72.7377 266.512 73.9936 267.551 74.6793C268.564 75.4601 269.66 75.5501 270.814 75.0445C271.943 74.6339 272.603 73.6904 272.839 72.4295C273.075 71.1686 272.792 69.5648 271.964 67.7132C271.205 65.9822 270.319 64.7263 269.281 64.0405C268.242 63.3548 267.171 63.1698 266.017 63.6754C264.958 64.2065 264.324 65.055 264.088 66.3159Z" fill="black"/>
<path d="M275.046 60.3907L273.537 60.6994L273.266 59.8119L275.644 58.9211C276.075 58.8329 276.557 58.5546 277.134 58.3018C277.711 58.049 278.072 57.8403 278.383 57.8216C279.968 57.2278 281.236 57.0582 282.091 57.2874C282.946 57.5166 283.605 58.1004 283.946 59.1085C284.243 59.9011 284.324 60.7377 284.025 61.4725C283.726 62.2073 283.238 62.8912 282.515 63.3086C283.643 62.898 284.575 62.8421 285.43 63.0713C286.286 63.3005 286.918 63.9793 287.259 64.9874C287.67 66.116 287.65 67.3328 287.084 68.3018C286.494 69.3658 285.238 70.2516 283.317 70.9591C282.86 71.1423 282.524 71.256 282.093 71.3442C281.205 71.6157 280.628 71.8685 280.413 71.9126L278.035 72.8033L277.738 72.0108L279.159 71.271L275.046 60.3907ZM279.662 64.072L280.67 63.731C281.462 63.4341 281.995 62.9658 282.269 62.326C282.542 61.6862 282.53 60.9701 282.138 60.152C281.841 59.3595 281.373 58.8266 280.828 58.5787C280.283 58.3309 279.447 58.4123 278.439 58.7533C277.982 58.9366 277.621 59.1453 277.164 59.3285L276.803 59.5372L278.654 64.4131C278.774 64.3435 279.11 64.2298 279.662 64.072ZM282.83 70.1156C283.958 69.705 284.732 69.0975 285.126 68.3882C285.52 67.6788 285.508 66.9627 285.167 65.9546C284.8 65.0415 284.332 64.5086 283.787 64.2608C283.148 63.9875 282.311 64.0689 281.277 64.5049C280.054 64.8901 279.356 65.2125 279.02 65.3261L280.985 70.538C281.245 70.7094 281.917 70.4821 282.83 70.1156Z" fill="black"/>
<path d="M302.57 50.0427L302.841 50.9303L301.421 51.6701L304.767 62.7523L306.491 62.3994L306.762 63.287L301.773 64.8021L301.501 63.9145L302.896 63.2697L299.481 52.0671L293.725 53.784L297.14 64.9867L298.864 64.6338L299.135 65.5214L294.146 67.0365L293.875 66.1489L295.27 65.5041L291.924 54.422L290.32 54.7052L290.049 53.8176L302.57 50.0427Z" fill="black"/>
<path d="M310.37 61.6053C309.351 61.2302 308.502 60.5954 307.825 59.701C307.148 58.8066 306.642 57.6525 306.308 56.2389C305.974 54.8252 305.899 53.5829 306.135 52.322C306.346 51.1561 306.911 50.1872 307.641 49.3642C308.371 48.5411 309.335 47.9846 310.533 47.6945C312.403 47.177 313.975 47.3944 315.342 48.372C316.615 49.3242 317.545 50.7956 318.081 52.9764C318.415 54.3901 318.464 55.7274 318.254 56.8933C318.018 58.1542 317.453 59.1231 316.628 59.9207C315.803 60.7182 314.839 61.2748 313.736 61.5904C312.417 61.95 311.39 61.9805 310.37 61.6053ZM308.235 50.9493C307.809 52.1592 307.902 53.7121 308.394 55.6773C308.816 57.5221 309.582 58.8475 310.474 59.6978C311.367 60.5482 312.507 60.8537 313.61 60.5382C314.808 60.2481 315.513 59.5201 315.964 58.2151C316.39 57.0051 316.323 55.3572 315.831 53.392C315.408 51.5472 314.643 50.2218 313.75 49.3715C312.858 48.5212 311.812 48.2411 310.614 48.5311C309.46 49.0368 308.635 49.8343 308.235 50.9493Z" fill="black"/>
<path d="M324.297 53.7255C324.435 55.4938 324.294 56.7802 323.919 57.8001C323.791 58.2753 323.474 58.6995 323.207 58.9337C322.941 59.1679 322.579 59.3766 322.148 59.4648C321.597 59.6226 321.096 59.5903 320.881 59.6344L320.451 58.1952C320.762 58.1766 321.193 58.0884 321.84 57.9561C322.055 57.912 322.271 57.8678 322.417 57.7032C322.563 57.5386 322.709 57.374 322.785 57.0889C323.433 55.4293 323.221 52.4186 322.295 47.8925L321.961 46.4788L319.762 46.7043L319.585 45.8422L330.146 43.681L330.323 44.5432L328.643 45.1115L330.98 56.5347L332.869 56.3278L333.045 57.1899L327.442 58.3367L327.265 57.4746L329.161 56.8621L326.823 45.4389L323.159 46.1887L323.538 47.8179C323.858 50.0428 324.135 52.0522 324.297 53.7255Z" fill="black"/>
<path d="M333.91 44.0784L332.383 44.0766L332.232 43.1195L341.614 41.559L342.377 44.4118L341.325 44.5373L340.471 42.7808L335.927 43.3964L336.77 48.6133L339.882 48.0213L339.884 46.4939L340.936 46.3684L341.628 50.6281L340.576 50.7536L340.077 49.1939L336.99 49.6909L337.852 55.2183L343.024 54.1598L343.591 51.6635L344.757 51.874L344.798 55.1443L334.58 56.7862L334.403 55.924L335.937 55.5203L333.91 44.0784Z" fill="black"/>
<path d="M349.32 41.6887L346.138 42.1602L346 46.0957L344.732 46.2653L344.434 41.2962L356.008 39.9158L356.833 44.8221L355.685 44.9221L354.581 41.0612L351.355 41.3172L352.805 53.0118L355.479 52.9136L355.535 53.8453L348.48 54.7051L348.425 53.7734L350.795 53.2883L349.32 41.6887Z" fill="black"/>
<path d="M364.6 47.0051L363.668 47.061C363.402 47.2952 363.084 47.7194 362.836 48.2642C362.563 48.904 362.264 49.6388 362.01 50.5891C361.66 51.514 361.482 52.1792 361.26 52.6289C361.037 53.0786 360.866 53.3382 360.65 53.3824L358.14 53.6265L358.084 52.6948L358.756 52.4675C358.972 52.4234 359.118 52.2588 359.315 51.9041C359.512 51.5494 359.759 51.0047 360.058 50.2699C360.382 49.44 360.776 48.7307 361.024 48.186C361.367 47.6667 361.684 47.2425 362.046 47.0337C361.165 46.8996 360.456 46.5058 359.918 45.8524C359.38 45.199 359.083 44.4064 359.027 43.4747C358.908 42.0169 359.309 40.902 360.083 40.2945C360.977 39.6175 362.201 39.2323 363.849 39.1646C364.159 39.1459 364.685 39.0832 365.281 39.1409C365.902 39.1037 366.308 39.1105 366.618 39.0918L369.318 38.8986L369.374 39.8303L367.866 40.139L368.771 51.5859L370.488 51.6386L370.544 52.5703L365.024 53.0263L364.968 52.0947L366.787 51.7673L366.394 46.7728L364.6 47.0051ZM365.362 39.9776C364.767 39.9199 364.336 40.0081 363.835 39.9758C362.903 40.0317 362.111 40.3286 361.698 40.7274C361.165 41.1957 360.962 41.956 361.087 43.0082C361.118 44.0349 361.535 44.7579 362.003 45.2908C362.592 45.7542 363.353 45.9579 364.284 45.902C365.311 45.8715 365.958 45.7392 366.268 45.7206L365.863 40.0099L365.362 39.9776Z" fill="black"/>
<path d="M376.086 39.4897L372.86 39.7457L372.317 43.6744L371.074 43.7489L371.207 38.6917L382.837 38.2429L383.231 43.2374L382.109 43.2424L381.315 39.3629L378.045 39.4033L378.443 51.2234L381.066 51.3153L381.122 52.247L374.03 52.4857L373.974 51.554L376.389 51.2844L376.086 39.4897Z" fill="black"/>
<path d="M391.922 51.4742C390.979 50.814 390.276 50.0146 389.745 48.9556C389.214 47.8966 389.044 46.6288 389.021 45.1965C389.092 43.7896 389.423 42.5542 390.014 41.4902C390.605 40.4262 391.429 39.6286 392.488 39.0975C393.547 38.5664 394.651 38.2509 395.962 38.2968C396.869 38.3359 398.06 38.4514 399.39 38.8079L399.961 38.9607L399.665 42.3447L398.448 42.3242L398.058 39.9788C397.894 39.8328 397.634 39.6614 397.159 39.5341C396.684 39.4068 396.183 39.3745 395.587 39.3167C394.776 39.3031 394.104 39.5304 393.476 39.9733C392.848 40.4162 392.359 41.1001 391.94 41.9044C391.59 42.8293 391.336 43.7797 391.29 45.0915C391.269 46.3083 391.395 47.3605 391.666 48.248C391.938 49.1356 392.425 49.9791 393.083 50.563C393.742 51.1468 394.476 51.4456 395.383 51.4847C396.099 51.4729 396.504 51.4797 396.935 51.3915C397.271 51.2778 397.607 51.1641 397.874 50.93L398.668 49.1057L399.834 49.3162L399.337 51.933C399.026 51.9517 398.69 52.0654 398.164 52.1281C397.733 52.2163 397.276 52.3996 396.871 52.3927C396.44 52.481 395.939 52.4487 395.318 52.486C394.006 52.44 392.866 52.1345 391.922 51.4742Z" fill="black"/>
<path d="M407.528 38.8492L407.489 39.7555L405.625 39.8673L404.942 49.2588L406.65 47.0681L412.481 40.8895L412.514 40.3889L410.873 40.051L410.912 39.1448L416.013 39.4931L415.974 40.3994L414.516 40.518L413.748 52.1276L415.294 52.44L415.255 53.3462L410.059 52.9725L410.098 52.0662L411.746 51.9985L412.359 42.4865L410.798 44.5126L404.845 50.7607L404.762 51.4514L406.524 51.7197L406.485 52.6259L401.193 52.2267L401.232 51.3204L402.785 51.2272L403.553 39.6177L402.102 39.3307L402.141 38.4245L407.528 38.8492Z" fill="black"/>
<path d="M427.806 40.7177L427.414 45.6036L426.127 45.4626L426.024 41.6662L421.905 41.0719L420.586 52.8393L423.798 53.3945L423.664 54.2752L416.351 53.4363L416.486 52.5555L418.514 52.5896L419.757 41.1074L417.856 40.5981L417.99 39.7173L427.806 40.7177Z" fill="black"/>
<path d="M430.954 42.2743L429.554 41.7973L429.688 40.9165L434.688 41.645L434.553 42.5258L432.931 42.4985L432.203 47.498L438.653 48.5134L439.381 43.5139L437.886 43.0114L438.021 42.1307L443.02 42.8591L442.886 43.7399L441.359 43.7381L439.615 55.188L441.04 55.57L440.906 56.4508L435.907 55.7223L436.041 54.8415L437.568 54.8434L438.398 49.4637L431.948 48.4483L431.118 53.828L432.733 54.2608L432.599 55.1416L427.504 54.3877L427.639 53.5069L429.166 53.5087L430.954 42.2743Z" fill="black"/>
<path d="M449.774 44.2615L451.795 44.7012L453.668 58.2406L454.783 58.6412L454.649 59.5219L449.821 58.5338L449.955 57.6531L451.552 57.7754L451.219 54.8343L445.916 53.7189L444.512 56.2966L446.007 56.7991L445.873 57.6799L441.52 56.8191L441.654 55.9383L442.871 55.9588L449.774 44.2615ZM450.366 47.374L450.203 45.7006L449.485 47.2398L446.481 52.7499L451.119 53.6871L450.366 47.374Z" fill="black"/>
<path d="M460.465 55.6819C459.842 57.2465 459.105 58.4751 458.401 59.2031C457.988 59.6019 457.627 59.8106 457.291 59.9243C456.955 60.0379 456.549 60.0311 456.074 59.9038C455.504 59.751 455.029 59.6237 454.769 59.4523L454.961 57.9758C455.246 58.0522 455.721 58.1796 456.292 58.3323C456.482 58.3833 456.697 58.3392 456.913 58.2951C457.128 58.2509 457.274 58.0863 457.541 57.8522C458.778 56.6558 460.042 53.8371 461.144 49.3451L461.526 47.9196L459.53 47.3848L459.785 46.4345L470.29 49.0455L470.035 49.9958L468.248 49.8226L465.433 61.0875L467.188 61.7613L466.959 62.6166L461.327 61.2093L461.556 60.354L463.507 60.6732L466.322 49.4083L462.59 48.5102L462.157 50.1258C461.718 52.147 461.088 54.1172 460.465 55.6819Z" fill="black"/>
<path d="M476.536 56.525C477.936 57.002 478.974 57.6877 479.557 58.5566C480.139 59.4256 480.239 60.5728 479.813 61.7828C479.336 63.1828 478.58 64.1009 477.547 64.5369C476.393 65.0426 475.176 65.0221 473.75 64.6401C473.56 64.5892 473.37 64.5383 473.18 64.4873C472.99 64.4364 472.8 64.3855 472.54 64.2141C471.901 63.9408 471.235 63.7625 470.691 63.5147L468.245 62.7576L468.474 61.9023L470.02 62.2147L473.405 51.1026L472.056 50.4355L472.285 49.5802L477.366 51.1453L477.137 52.0006L475.28 51.7069L473.97 55.8375L476.536 56.525ZM472.7 63.2382C472.89 63.2892 473.245 63.4861 473.625 63.5879C474.67 63.868 475.481 63.8817 476.204 63.4643C476.927 63.0468 477.416 62.363 477.696 61.3176C477.976 60.2722 477.965 59.5561 477.547 58.8331C477.199 58.2306 476.515 57.7418 475.496 57.3666L473.69 56.8828L471.87 62.914C472.25 63.0159 472.51 63.1873 472.7 63.2382ZM489.334 54.7594L489.105 55.6147L487.343 55.3465L483.958 66.4586L485.592 67.202L485.363 68.0573L480.092 66.4413L480.321 65.586L482.057 65.9493L485.442 54.8372L483.808 54.0937L484.037 53.2384L489.334 54.7594Z" fill="black"/>
<path d="M497.023 58.7551L495.699 57.993L496.023 57.1631L500.743 58.937L500.419 59.7668L498.873 59.4544L497.099 64.1738L503.288 66.5452L505.062 61.8258L503.738 61.0637L504.062 60.2338L508.782 62.0077L508.457 62.8375L507.006 62.5506L502.861 73.459L504.21 74.1261L503.886 74.9559L499.167 73.182L499.491 72.3522L501.012 72.7596L502.982 67.6856L496.793 65.3142L494.823 70.3883L496.241 71.1758L495.917 72.0057L491.128 70.1114L491.452 69.2815L492.973 69.6889L497.023 58.7551Z" fill="black"/>
<path d="M515.015 64.5946L516.934 65.4144L515.916 79.0961L516.86 79.7564L516.536 80.5862L511.988 78.5527L512.312 77.7229L513.807 78.2254L514.191 75.2725L509.168 73.1117L507.27 75.2515L508.689 76.0391L508.365 76.8689L504.266 75.0578L504.59 74.228L505.731 74.5335L515.015 64.5946ZM514.96 67.8394L515.203 66.1729L514.13 67.5152L510.018 72.2191L514.401 74.1066L514.96 67.8394Z" fill="black"/>
<path d="M528.726 72.343L527.004 71.1685L527.423 70.3641L531.8 72.6572L530.294 81.3189L529.752 83.7202L531.358 81.9096L537.525 75.6174L541.902 77.9105L541.483 78.7149L539.538 77.9901L535.488 88.924L536.855 89.9016L536.436 90.706L531.705 88.2159L532.124 87.4116L533.689 88.0345L536.804 80.2113L538.126 76.7969L536.159 78.8163L528.925 86.0452L527.861 85.4545L529.355 76.0766L530.013 72.484L528.076 75.5301L523.517 82.6607L525.075 83.6893L524.656 84.4937L520.374 82.226L520.793 81.4216L522.263 82.0191L528.726 72.343Z" fill="black"/>
<path d="M548.096 81.4037L549.844 82.4832L547.255 95.9475L548.198 96.6077L547.779 97.4121L543.548 94.9544L543.967 94.15L545.437 94.7475L546.081 91.9661L541.426 89.191L539.269 91.1594L540.541 92.1115L540.122 92.9159L536.341 90.6805L536.76 89.8762L537.875 90.2768L548.096 81.4037ZM547.661 84.5466L548.094 82.931L546.857 84.1274L542.156 88.3679L546.291 90.8002L547.661 84.5466Z" fill="black"/>
<path d="M556.365 87.7953L555.308 86.7991L555.822 86.0202L557.899 87.3916C558.254 87.5885 558.678 87.9059 559.033 88.1027C559.647 88.4711 560.192 88.7189 560.711 89.0617C562.174 90.0648 563.136 91.0356 563.382 92.0182C563.628 93.0009 563.443 94.0717 562.757 95.1103C562.218 95.9842 561.564 96.5221 560.746 96.9141C559.928 97.306 559.091 97.3874 558.211 97.2533C557.33 97.1191 556.405 96.7694 555.531 96.2297C555.176 96.0328 554.917 95.8614 554.588 95.5695C554.233 95.3726 554.068 95.2266 553.999 95.1061L551.745 98.5764L553.771 100.138L553.257 100.917L548.133 97.6088L548.648 96.8299L550.092 97.5224L556.365 87.7953ZM556.045 95.4508C556.919 95.9905 557.68 96.1942 558.542 96.0178C559.404 95.8414 560.178 95.2339 560.914 94.0053C561.454 93.1314 561.683 92.2761 561.456 91.604C561.229 90.9319 560.691 90.2785 559.747 89.6183C559.392 89.4214 559.038 89.2245 558.588 89.0021C558.328 88.8307 558.138 88.7798 558.138 88.7798L554.513 94.3272C554.842 94.6191 555.266 94.9365 556.045 95.4508Z" fill="black"/>
<path d="M560.774 105.172C560.338 104.138 560.238 102.991 560.423 101.92C560.608 100.849 561.155 99.5698 561.987 98.3667C562.793 97.2586 563.738 96.3914 564.797 95.8603C565.856 95.3292 567.029 95.1342 568.22 95.2497C569.412 95.3652 570.527 95.7658 571.54 96.5465C572.319 97.0608 573.211 97.9111 574.078 98.8565L574.572 99.2943L572.452 101.884L571.414 101.198L572.405 99.0192C572.361 98.8037 572.127 98.5373 571.918 98.1758C571.709 97.8143 571.19 97.4714 570.671 97.1286C569.987 96.6397 569.322 96.4615 568.51 96.4479C567.699 96.4342 566.907 96.7311 566.158 97.2436C565.41 97.756 564.585 98.5536 563.925 99.4971C563.264 100.441 562.794 101.435 562.445 102.36C562.19 103.31 562.056 104.191 562.327 105.079C562.599 105.966 563.042 106.594 563.82 107.108C564.34 107.451 564.764 107.769 565.144 107.871C565.524 107.972 565.809 108.049 566.12 108.03L567.832 106.961L568.725 107.811L566.783 109.736C566.524 109.564 566.144 109.462 565.694 109.24C565.219 109.113 564.864 108.916 564.389 108.789C564.034 108.592 563.584 108.369 563.065 108.026C562.078 107.151 561.21 106.205 560.774 105.172Z" fill="black"/>
<path d="M588.034 109.115L587.425 109.868L585.867 108.84L579.945 116.115L582.608 115.3L590.893 113.65L591.211 113.226L590.109 112.014L590.719 111.26L594.72 114.573L594.111 115.327L592.787 114.565L585.38 123.581L586.507 124.697L585.923 125.356L581.922 122.043L582.506 121.384L583.899 122.267L589.941 114.923L587.494 115.693L578.993 117.387L578.555 117.881L579.751 119.119L579.168 119.777L575.071 116.438L575.655 115.78L576.953 116.637L584.36 107.621L583.328 106.53L583.938 105.777L588.034 109.115Z" fill="black"/>
<path d="M597.511 117.46C598.056 117.708 598.385 118 598.74 118.197C599.095 118.394 599.424 118.686 599.684 118.857C600.836 119.879 601.582 120.894 601.828 121.876C602.074 122.859 601.845 123.714 601.141 124.442C600.436 125.17 599.714 125.588 598.807 125.549C597.971 125.63 597.115 125.401 596.336 124.886C597.134 125.711 597.621 126.555 597.702 127.391C597.784 128.228 597.46 129.058 596.876 129.716C596 130.704 594.941 131.235 593.845 131.145C592.723 131.15 591.564 130.534 590.152 129.341C589.563 128.877 589.19 128.37 588.816 127.862C588.443 127.355 588.234 126.994 588 126.727C587.861 126.486 587.722 126.245 587.652 126.125L590.076 123.922L590.734 124.506L589.553 126.634C589.78 127.306 590.318 127.959 591.046 128.664C591.705 129.248 592.249 129.495 592.991 129.388C593.638 129.256 594.335 128.934 594.945 128.18C595.503 127.617 595.681 126.952 595.764 126.261C595.848 125.57 595.335 124.822 594.512 124.092L593.525 123.216L594.229 122.488L595.052 123.218C595.476 123.536 595.9 123.853 596.376 123.98C596.851 124.108 597.351 124.14 597.903 123.982C598.454 123.824 598.841 123.521 599.279 123.027C599.863 122.368 600.111 121.824 599.979 121.177C599.941 120.556 599.568 120.048 598.91 119.465C598.511 119.052 598.156 118.855 597.707 118.633C597.352 118.436 597.041 118.455 596.826 118.499L595.424 119.549L594.506 118.794L596.334 116.533C596.637 116.92 596.992 117.117 597.511 117.46Z" fill="black"/>
<path d="M608.652 129.103L607.766 127.847L608.445 127.214L610.205 129.01C610.534 129.302 610.933 129.714 611.426 130.152C611.92 130.59 612.249 130.882 612.414 131.028C613.61 132.265 614.357 133.28 614.413 134.212C614.589 135.074 614.265 135.904 613.561 136.632C612.882 137.265 612.184 137.587 611.443 137.694C610.701 137.801 609.846 137.571 609.067 137.057C609.959 137.907 610.446 138.751 610.502 139.683C610.558 140.614 610.259 141.349 609.555 142.077C608.705 142.97 607.576 143.38 606.48 143.29C605.289 143.175 603.965 142.413 602.509 141.004C602.18 140.712 601.876 140.325 601.642 140.059C601.009 139.38 600.61 138.967 600.446 138.821L598.686 137.026L599.365 136.393L600.637 137.345L608.652 129.103ZM603.118 140.251C604.011 141.101 604.79 141.615 605.601 141.629C606.412 141.642 607.11 141.32 607.789 140.687C608.467 140.054 608.766 139.319 608.729 138.698C608.692 138.077 608.274 137.354 607.477 136.529C606.584 135.679 606.021 135.121 605.787 134.854L601.878 138.798C601.922 139.013 602.416 139.451 603.118 140.251ZM607.339 134.761L608.067 135.465C608.726 136.049 609.34 136.417 609.961 136.38C610.582 136.343 611.28 136.02 611.864 135.362C612.448 134.704 612.79 134.184 612.753 133.563C612.716 132.942 612.298 132.219 611.57 131.515C611.241 131.223 610.912 130.931 610.488 130.614L610.159 130.322L606.516 134.031C606.706 134.082 606.941 134.348 607.339 134.761Z" fill="black"/>
<path d="M620.953 139.835L622.383 141.338L616 153.378L616.651 154.368L615.972 155.001L612.668 151.365L613.347 150.732L614.5 151.754L615.998 149.202L612.296 145.154L609.626 146.374L610.607 147.655L609.928 148.288L606.928 145.04L607.607 144.407L608.525 145.162L620.953 139.835ZM619.473 142.697L620.381 141.209L618.84 142.018L613.139 144.667L616.373 148.182L619.473 142.697Z" fill="black"/>
<path d="M618.397 156.975C618.202 155.802 618.387 154.731 618.883 153.642C619.379 152.552 620.159 151.539 621.32 150.628C622.386 149.691 623.54 149.186 624.738 148.896C625.936 148.606 627.128 148.721 628.243 149.122C629.358 149.522 630.301 150.183 631.143 151.223C631.75 151.997 632.402 152.986 633.003 154.166L633.255 154.743L630.572 156.774L629.8 155.854L631.336 153.923C631.292 153.707 631.273 153.397 631.065 153.035C630.856 152.674 630.578 152.192 630.179 151.779C629.641 151.126 629.027 150.758 628.266 150.554C627.506 150.35 626.669 150.432 625.782 150.703C624.894 150.975 623.93 151.531 623.01 152.303C622.09 153.075 621.361 153.898 620.846 154.677C620.307 155.551 620.077 156.407 620.064 157.218C620.05 158.029 620.347 158.821 620.955 159.595C621.423 160.128 621.752 160.42 622.107 160.617C622.461 160.814 622.721 160.985 623.032 160.967L624.927 160.354L625.579 161.344L623.264 162.761C623.099 162.615 622.77 162.323 622.346 162.005C621.896 161.783 621.567 161.491 621.238 161.199C620.909 160.907 620.484 160.59 620.111 160.082C619.123 159.207 618.592 158.148 618.397 156.975Z" fill="black"/>
<path d="M637.421 163.905C638.568 163.805 639.544 163.965 640.469 164.315C641.394 164.664 642.217 165.394 642.824 166.168C643.571 167.183 643.937 168.096 644.063 169.148C644.093 170.175 643.933 171.151 643.368 172.12C642.803 173.089 642.048 174.007 640.912 174.823C639.752 175.734 638.477 176.309 637.279 176.6C636.081 176.89 634.984 176.8 633.869 176.399C632.754 175.998 632.001 175.389 631.324 174.495C630.577 173.48 630.141 172.446 630.016 171.394C629.89 170.342 630.145 169.391 630.615 168.397C631.18 167.428 631.936 166.51 632.976 165.668L631.179 163.252L626.827 166.567L627.662 168.013L626.914 168.526L623.832 164.441L624.581 163.928L625.707 165.045L634.918 158.04L634.153 156.715L634.927 156.107L637.939 160.072L637.165 160.679L636.038 159.563L632.073 162.575L633.87 164.991C635.24 164.442 636.343 164.126 637.421 163.905ZM639.041 165.46C637.799 165.535 636.309 166.154 634.641 167.439C633.213 168.584 632.217 169.641 631.791 170.851C631.365 172.061 631.49 173.113 632.237 174.128C633.009 175.048 633.909 175.493 635.176 175.323C636.419 175.249 637.839 174.509 639.482 173.319C640.909 172.174 641.906 171.117 642.332 169.907C642.758 168.697 642.632 167.645 641.955 166.75C641.278 165.856 640.284 165.386 639.041 165.46Z" fill="black"/>
<path d="M645.37 183.657C645.166 184.417 644.696 185.412 644.175 186.596C643.756 187.401 643.577 188.066 643.38 188.42C643.279 188.801 643.177 189.181 643.246 189.301L643.474 189.973L642.725 190.486L641.397 188.602C641.257 188.361 641.264 187.955 641.512 187.411C641.76 186.866 642.084 186.036 642.554 185.041C643.17 183.882 643.52 182.958 643.793 182.318C644.067 181.678 644.004 181.152 643.89 180.816L643.239 179.826L638.868 182.832L639.583 184.347L638.834 184.86L635.994 180.635L636.742 180.123L637.749 181.309L647.332 174.812L646.688 173.417L647.436 172.904L650.207 177.008L649.459 177.521L648.452 176.334L643.987 179.314L644.847 180.665L651.432 180.8L650.692 179.379L651.441 178.867L653.977 182.704L653.229 183.216L652.197 182.125L645.448 181.844C645.631 182.301 645.574 182.897 645.37 183.657Z" fill="black"/>
<path d="M644.997 193.03C645.062 192.028 645.342 190.983 646.097 190.065C646.758 189.121 647.703 188.254 648.908 187.559C650.138 186.768 651.362 186.383 652.509 186.283C653.751 186.208 654.822 186.393 655.817 186.863C656.811 187.334 657.634 188.063 658.26 189.148C659.234 190.835 659.543 192.344 659.015 193.934C658.513 195.429 657.345 196.746 655.512 197.884C654.282 198.675 653.058 199.06 651.79 199.23C650.548 199.304 649.477 199.119 648.388 198.623C647.393 198.153 646.596 197.328 645.944 196.339C645.248 195.134 645.028 194.056 644.997 193.03ZM654.535 187.844C653.319 187.824 651.759 188.323 650.046 189.392C648.455 190.391 647.363 191.423 646.842 192.607C646.226 193.766 646.351 194.818 646.978 195.903C647.629 196.892 648.598 197.458 649.815 197.478C651.127 197.524 652.591 197 654.304 195.931C655.896 194.931 656.987 193.9 657.508 192.715C658.004 191.626 657.999 190.504 657.373 189.419C656.721 188.43 655.847 187.89 654.535 187.844Z" fill="black"/>
<path d="M662.027 197.898L661.503 196.434L662.346 195.947L663.599 198.116C663.807 198.477 664.086 198.959 664.459 199.467C664.832 199.974 665.041 200.336 665.18 200.577C665.989 202.118 666.4 203.246 666.24 204.222C666.081 205.198 665.617 205.787 664.748 206.369C664.025 206.786 663.163 206.962 662.378 206.854C661.592 206.745 660.883 206.351 660.275 205.577C660.901 206.662 661.078 207.524 660.918 208.5C660.784 209.381 660.2 210.039 659.356 210.526C658.272 211.152 657.125 211.252 656.01 210.852C654.895 210.451 653.863 209.36 652.82 207.552C652.611 207.191 652.428 206.734 652.219 206.373C651.732 205.529 651.479 204.952 651.41 204.832L650.157 202.663L650.975 202.271L651.861 203.527L662.027 197.898ZM653.568 207.04C654.194 208.124 654.827 208.803 655.587 209.007C656.348 209.21 657.089 209.104 657.933 208.617C658.776 208.13 659.24 207.541 659.392 206.971C659.545 206.4 659.369 205.538 658.812 204.574C658.186 203.49 657.769 202.767 657.63 202.526L652.74 205.188C652.828 205.619 653.081 206.196 653.568 207.04ZM659.15 202.933L659.612 203.872C660.029 204.595 660.618 205.058 661.188 205.211C661.853 205.389 662.5 205.257 663.343 204.77C664.066 204.352 664.504 203.859 664.657 203.288C664.81 202.718 664.608 201.951 664.051 200.987C663.843 200.626 663.539 200.239 663.356 199.782L663.147 199.421L658.594 201.969C658.733 202.21 658.872 202.451 659.15 202.933Z" fill="black"/>
<path d="M676.586 223.393L675.768 223.785L674.907 222.434L664.489 227.485L665.057 229.165L664.239 229.557L661.957 224.77L662.775 224.378L663.635 225.729L674.149 220.703L671.519 215.313L660.98 220.433L661.548 222.114L660.73 222.506L658.422 217.813L659.241 217.421L660.031 218.651L670.45 213.6L669.951 212.041L670.769 211.649L676.586 223.393Z" fill="black"/>
<path d="M666.282 232.957C666.467 231.886 667.007 231.012 667.737 230.189C668.561 229.391 669.576 228.645 670.851 228.07C672.125 227.494 673.419 227.23 674.61 227.345C675.801 227.461 676.847 227.741 677.79 228.401C678.734 229.061 679.411 229.956 679.847 230.989C680.58 232.815 680.673 234.368 679.885 235.787C679.193 237.231 677.766 238.376 675.819 239.179C674.449 239.729 673.156 239.993 671.965 239.878C670.774 239.762 669.633 239.457 668.69 238.797C667.746 238.136 667.069 237.242 666.538 236.183C666.222 235.08 666.027 233.907 666.282 232.957ZM676.439 229.261C675.178 229.025 673.67 229.334 671.723 230.137C669.992 230.895 668.736 231.781 668.05 232.819C667.365 233.858 667.18 234.929 667.685 236.083C668.191 237.237 669.039 237.872 670.3 238.108C671.561 238.344 673.165 238.06 675.016 237.232C676.747 236.474 678.003 235.588 678.689 234.55C679.375 233.511 679.465 232.415 679.054 231.286C678.549 230.132 677.7 229.497 676.439 229.261Z" fill="black"/>
<path d="M676.192 245.39C674.468 245.743 673.105 245.887 672.129 245.728C671.654 245.6 671.179 245.473 670.944 245.207C670.615 244.915 670.381 244.648 670.198 244.192C669.945 243.615 669.857 243.184 669.838 242.873L671.233 242.228C671.252 242.539 671.435 242.995 671.688 243.572C671.732 243.788 671.897 243.934 672.061 244.08C672.226 244.226 672.416 244.277 672.701 244.353C674.437 244.717 677.455 244.099 681.658 242.475L683.028 241.926L682.466 239.84L683.379 239.473L687.195 249.561L686.282 249.928L685.473 248.387L674.592 252.499L675.04 254.249L674.153 254.52L672.144 249.093L673.032 248.822L673.885 250.578L684.765 246.465L683.464 242.959L681.879 243.553C679.786 244.52 677.916 245.038 676.192 245.39Z" fill="black"/>
<path d="M687.273 253.452L686.964 251.944L687.852 251.672L690.826 260.719L688.182 261.844L687.841 260.836L689.363 259.716L688.006 255.278L682.991 256.888L684.04 259.818L685.618 259.629L685.959 260.638L681.831 261.976L681.49 260.968L682.911 260.228L681.983 257.229L676.727 258.979L678.553 263.95L681.151 264.136L681.156 265.258L677.879 265.704L674.608 255.864L675.495 255.593L676.14 256.988L687.273 253.452Z" fill="black"/>
<path d="M692.059 268.282L691.036 265.258L687.043 265.715L686.753 264.517L691.615 263.477L694.814 274.724L690.015 276.29L689.7 275.187L693.308 273.506L692.526 270.342L681.184 273.516L681.713 276.103L680.825 276.374L678.888 269.54L679.776 269.268L680.597 271.526L692.059 268.282Z" fill="black"/>
<path d="M689.118 284.198L688.942 283.336C688.708 283.07 688.233 282.943 687.567 282.764C686.902 282.586 686.116 282.477 685.141 282.318C684.165 282.158 683.5 281.98 683.024 281.853C682.549 281.725 682.29 281.554 682.246 281.338L681.691 278.847L682.553 278.67L682.875 279.368C682.945 279.489 683.204 279.66 683.559 279.857C683.939 279.959 684.51 280.111 685.244 280.41C686.1 280.639 686.86 280.843 687.525 281.021C688.07 281.269 688.52 281.492 688.849 281.783C688.888 280.877 689.187 280.142 689.65 279.554C690.234 278.895 690.957 278.478 691.819 278.301C693.233 277.967 694.399 278.178 695.126 278.882C695.854 279.586 696.455 280.766 696.833 282.395C696.947 282.731 697.01 283.257 697.073 283.783C697.11 284.404 697.198 284.835 697.312 285.172L697.936 287.783L697.048 288.055L696.429 286.565L685.12 289.238L685.377 290.937L684.541 291.019L683.223 285.674L684.085 285.498L684.653 287.178L689.446 286.018L689.118 284.198ZM696.115 283.934C696.053 283.408 695.99 282.882 695.902 282.451C695.656 281.468 695.308 280.866 694.814 280.428C694.32 279.99 693.509 279.976 692.526 280.222C691.544 280.468 690.821 280.886 690.453 281.5C690.084 282.114 689.976 282.9 690.222 283.883C690.468 284.865 690.6 285.512 690.739 285.753L696.299 284.391L696.115 283.934Z" fill="black"/>
<path d="M698.302 294.4L697.615 291.262L693.603 291.41L693.408 290.237L698.359 289.628L700.601 301.026L695.713 302.161L695.518 300.988L699.24 299.643L698.769 296.46L687.181 298.652L687.495 301.283L686.632 301.459L685.247 294.467L686.109 294.291L686.809 296.617L698.302 294.4Z" fill="black"/>
<path d="M688.94 311.855C689.41 310.861 690.165 309.943 691.129 309.386C692.118 308.735 693.342 308.35 694.73 308.11C696.093 307.966 697.405 308.012 698.494 308.508C699.609 308.908 700.527 309.664 701.299 310.584C702.072 311.503 702.482 312.632 702.652 313.9C702.803 314.857 702.808 315.979 702.641 317.36L702.583 317.956L699.262 318.186L699.093 316.919L701.35 316.097C701.496 315.933 701.598 315.553 701.605 315.147C701.611 314.741 701.669 314.146 701.511 313.594C701.404 312.853 701.082 312.155 700.519 311.597C699.955 311.038 699.246 310.644 698.296 310.39C697.345 310.135 696.319 310.166 695.076 310.24C693.904 310.435 692.921 310.681 691.982 311.143C691.044 311.604 690.391 312.142 689.902 312.826C689.413 313.51 689.279 314.391 689.36 315.227C689.492 315.874 689.555 316.4 689.764 316.762C689.878 317.098 690.112 317.364 690.346 317.631L692.247 318.14L692.226 319.357L689.507 319.239C689.463 319.024 689.375 318.593 689.097 318.111C688.914 317.654 688.705 317.293 688.617 316.862C688.529 316.431 688.345 315.974 688.308 315.353C688.328 314.136 688.444 312.945 688.94 311.855Z" fill="black"/>
<path d="M703.842 325.423L702.91 325.479L702.488 323.634L693.095 324.479L695.482 325.831L702.562 330.58L703.088 330.518L703.141 328.8L704.073 328.744L704.536 333.859L703.604 333.915L703.27 332.502L691.677 333.571L691.65 335.194L690.718 335.25L690.281 330.04L691.212 329.984L691.59 331.613L701.079 330.794L698.761 329.562L691.611 324.692L690.99 324.73L690.938 326.447L690.006 326.503L689.568 321.293L690.5 321.237L690.809 322.746L702.402 321.676L702.499 320.174L703.43 320.118L703.842 325.423Z" fill="black"/>
<path d="M705.123 345.73L700.249 346.054L700.175 344.812L703.934 344.087L703.907 340.006L692.156 340.524L692.102 343.769L691.17 343.825L690.792 336.492L691.724 336.436L692 338.445L703.561 337.876L703.69 335.874L704.622 335.818L705.123 345.73Z" fill="black"/>
<path d="M704.042 349.006L704.234 347.529L705.14 347.568L705.102 352.651L704.196 352.612L704.008 351.034L699.02 351.021L698.981 357.631L703.968 357.644L704.16 356.167L705.066 356.206L705.054 361.194L704.148 361.155L703.934 359.672L692.311 359.715L692.119 361.191L691.213 361.152L691.225 356.164L692.131 356.204L692.32 357.782L697.713 357.801L697.752 351.191L692.359 351.172L692.142 352.743L691.236 352.704L691.178 347.596L692.085 347.635L692.298 349.118L704.042 349.006Z" fill="black"/>
<path d="M705.084 367.925L705.05 369.953L691.977 373.885L691.767 375.051L690.86 375.012L691.063 370.075L691.969 370.114L692.062 371.667L694.915 370.904L695.15 365.466L692.47 364.443L692.253 366.014L691.346 365.975L691.517 361.539L692.423 361.578L692.523 362.725L705.084 367.925ZM702.034 369.043L703.664 368.664L701.978 368.111L696.049 365.911L695.803 370.632L702.034 369.043Z" fill="black"/>
<path d="M695.449 380.316C693.738 379.857 692.528 379.431 691.68 378.797C691.255 378.479 690.926 378.187 690.812 377.851C690.604 377.49 690.611 377.084 690.617 376.679C690.675 376.083 690.682 375.677 690.853 375.418L692.381 375.419C692.304 375.705 692.272 376.205 692.214 376.801C692.163 376.991 692.208 377.206 692.347 377.447C692.391 377.663 692.555 377.809 692.815 377.98C694.157 379.053 697.224 379.773 701.704 380.158L703.206 380.255L703.576 378.114L704.482 378.153L703.538 388.9L702.632 388.861L702.589 387.118L691.056 386.065L690.667 387.896L689.761 387.857L690.288 382.09L691.194 382.13L691.185 384.063L702.718 385.116L703.021 381.326L701.329 381.178C699.041 380.973 697.09 380.654 695.449 380.316Z" fill="black"/>
<path d="M697.09 396.238C696.898 397.714 696.377 398.899 695.483 399.576C694.683 400.278 693.606 400.499 692.319 400.358C690.938 400.191 689.899 399.506 689.248 398.516C688.596 397.527 688.427 396.259 688.618 394.783C688.669 394.593 688.72 394.403 688.676 394.187C688.632 393.972 688.778 393.807 688.854 393.522C689.033 392.857 689.116 392.166 689.269 391.596L689.646 389.048L690.526 389.183L690.499 390.805L702.07 392.479L702.572 390.984L703.453 391.118L702.648 396.403L701.767 396.269L701.655 394.405L697.347 393.76L697.09 396.238ZM689.856 393.586C689.805 393.776 689.703 394.157 689.696 394.562C689.511 395.633 689.713 396.4 690.251 397.054C690.789 397.707 691.498 398.101 692.594 398.191C693.57 398.35 694.432 398.174 694.965 397.706C695.593 397.263 695.892 396.528 696.077 395.457L696.371 393.601L690.085 392.731C689.983 393.111 689.907 393.396 689.856 393.586ZM700.795 408.639L699.915 408.504L699.967 406.787L688.492 405.138L688.034 406.849L687.153 406.715L687.888 401.31L688.769 401.444L688.716 403.161L700.192 404.81L700.65 403.099L701.531 403.234L700.795 408.639Z" fill="black"/>
<path d="M697.984 416.849L698.557 415.474L699.412 415.703L698.278 420.696L697.422 420.467L697.545 418.87L692.647 417.761L691.226 424.205L696.124 425.314L696.696 423.939L697.551 424.168L696.443 429.066L695.587 428.837L695.684 427.335L684.317 424.9L683.84 426.3L682.985 426.071L684.094 421.173L684.949 421.403L684.852 422.905L690.155 424.02L691.576 417.576L686.273 416.461L685.745 418.051L684.89 417.822L686.024 412.829L686.879 413.058L686.782 414.56L697.984 416.849Z" fill="black"/>
<path d="M694.952 435.389L694.417 437.385L680.84 438.636L680.345 439.725L679.49 439.496L680.668 434.719L681.523 434.948L681.306 436.52L684.196 436.377L685.501 431.125L683.044 429.652L682.447 431.121L681.591 430.892L682.642 426.59L683.497 426.82L683.382 428.011L694.952 435.389ZM691.795 435.765L693.538 435.723L692.024 434.91L686.686 431.646L685.559 436.233L691.795 435.765Z" fill="black"/>
<path d="M689.427 450.308L690.341 448.414L691.171 448.738L689.613 453.413L680.81 453.193L678.402 453.058L680.505 454.334L687.673 459.514L686.114 464.189L685.285 463.865L685.724 461.844L674.212 459.574L673.519 461.018L672.689 460.694L674.375 455.543L675.205 455.868L674.867 457.509L683.116 459.413L686.683 460.166L684.372 458.528L676.121 452.446L676.522 451.331L685.997 451.324L689.742 451.411L686.379 449.898L678.632 446.498L677.863 448.228L677.033 447.903L678.566 443.323L679.396 443.647L679.083 445.193L689.427 450.308Z" fill="black"/>
<path d="M683.495 470.923L682.771 472.868L669.152 472.376L668.586 473.345L667.757 473.021L669.6 468.422L670.43 468.746L670.022 470.267L672.931 470.435L674.902 465.361L672.642 463.533L671.854 464.952L671.024 464.627L672.645 460.478L673.475 460.802L673.265 461.968L683.495 470.923ZM680.251 470.868L681.943 471.016L680.575 470.038L675.725 466.091L674.027 470.525L680.251 470.868Z" fill="black"/>
<path d="M678.427 479.954L679.259 478.751L680.089 479.075L679.072 481.349C678.85 481.799 678.748 482.179 678.551 482.534C678.278 483.174 678.125 483.744 677.877 484.288C677.133 485.923 676.353 486.936 675.414 487.397C674.501 487.764 673.474 487.794 672.195 487.248C671.295 486.803 670.612 486.314 670.099 485.566C669.587 484.817 669.385 484.05 669.329 483.118C669.273 482.187 669.528 481.236 669.972 480.337C670.169 479.982 670.246 479.697 670.442 479.343C670.639 478.988 670.69 478.798 670.811 478.728L667.067 477.114L665.86 479.337L665.031 479.013L667.534 473.47L668.364 473.795L667.862 475.29L678.427 479.954ZM670.872 480.782C670.427 481.681 670.413 482.492 670.685 483.38C670.956 484.268 671.71 484.877 672.989 485.423C673.984 485.894 674.795 485.907 675.372 485.654C676.069 485.332 676.558 484.648 677.028 483.654C677.225 483.299 677.327 482.919 677.455 482.444C677.531 482.159 677.582 481.969 677.607 481.874L671.495 479.217C671.418 479.502 671.17 480.047 670.872 480.782Z" fill="black"/>
<path d="M661.96 487.052C662.924 486.495 664.027 486.18 665.149 486.175C666.365 486.195 667.601 486.526 668.855 487.168C670.109 487.809 671.122 488.59 671.774 489.579C672.52 490.594 672.836 491.697 672.936 492.845C673.036 493.992 672.825 495.158 672.209 496.317C671.765 497.216 671.104 498.16 670.298 499.268L669.955 499.787L667.023 498.187L667.519 497.097L669.894 497.734C670.11 497.69 670.376 497.455 670.668 497.126C670.96 496.797 671.183 496.347 671.525 495.828C671.919 495.119 672.002 494.428 671.826 493.566C671.719 492.824 671.302 492.101 670.694 491.327C670.061 490.648 669.213 490.014 668.054 489.398C666.964 488.902 665.944 488.527 664.969 488.367C663.993 488.208 663.061 488.263 662.243 488.655C661.451 488.952 660.892 489.516 660.447 490.415C660.174 491.055 659.952 491.505 659.945 491.91C659.843 492.29 659.862 492.601 659.975 492.937L661.311 494.415L660.651 495.359L658.434 493.746C658.511 493.461 658.613 493.081 658.74 492.606C658.867 492.131 658.874 491.725 659.001 491.25C659.103 490.87 659.351 490.325 659.599 489.78C660.215 488.621 660.97 487.703 661.96 487.052Z" fill="black"/>
<path d="M662.332 514.551L661.554 514.037L662.322 512.307L654.216 507.589L655.392 510.043L658.336 518.064L658.785 518.286L659.858 516.944L660.637 517.458L658.033 521.853L657.254 521.339L657.826 519.964L647.782 514.115L646.83 515.388L646.025 514.969L648.654 510.479L649.459 510.898L648.741 512.437L656.917 517.276L655.69 515.012L652.772 506.896L652.158 506.528L651.059 507.965L650.255 507.546L652.91 502.961L653.714 503.38L653.117 504.85L663.161 510.699L664.088 509.521L664.867 510.035L662.332 514.551Z" fill="black"/>
<path d="M655.615 525.177C655.367 525.722 655.239 526.197 655.043 526.552C654.846 526.907 654.649 527.261 654.477 527.521C653.62 528.819 652.77 529.712 651.857 530.078C650.944 530.445 650.038 530.406 649.164 529.866C648.29 529.326 647.872 528.603 647.696 527.741C647.519 526.879 647.628 526.093 647.978 525.168C647.318 526.112 646.544 526.719 645.681 526.896C644.819 527.072 644.034 526.963 643.255 526.449C642.121 525.738 641.444 524.844 641.344 523.696C641.219 522.644 641.575 521.314 642.604 519.756C642.972 519.142 643.41 518.648 643.848 518.154C644.26 517.755 644.647 517.451 644.914 517.217C645.18 516.983 645.326 516.819 645.421 516.844L647.941 518.843L647.427 519.622L645.127 518.701C644.525 519.048 643.966 519.612 643.306 520.555C642.817 521.239 642.734 521.93 642.866 522.576C642.999 523.223 643.562 523.781 644.436 524.321C645.05 524.689 645.716 524.868 646.457 524.761C647.199 524.654 647.852 524.116 648.392 523.242L649.103 522.109L649.977 522.648L649.437 523.522C649.12 523.947 648.993 524.422 648.865 524.897C648.833 525.397 648.896 525.924 649.079 526.38C649.262 526.837 649.661 527.249 650.18 527.592C650.864 528.081 651.555 528.164 652.106 528.006C652.658 527.848 653.191 527.38 653.68 526.696C653.997 526.272 654.22 525.822 654.226 525.417C654.328 525.036 654.31 524.726 654.17 524.485L652.879 523.222L653.539 522.279L656.022 523.657C655.964 524.253 655.767 524.607 655.615 525.177Z" fill="black"/>
<path d="M645.827 538.139L646.943 537.012L647.722 537.527L646.256 539.578C645.964 539.907 645.742 540.357 645.373 540.971C645.03 541.491 644.833 541.845 644.662 542.105C643.684 543.473 642.739 544.34 641.851 544.611C640.964 544.883 640.083 544.749 639.33 544.139C638.646 543.65 638.108 542.997 637.931 542.135C637.73 541.368 637.838 540.582 638.162 539.752C637.502 540.696 636.728 541.303 635.841 541.575C634.979 541.751 634.098 541.617 633.344 541.008C632.331 540.227 631.775 539.263 631.675 538.116C631.575 536.969 632.077 535.473 633.321 533.872C633.613 533.542 633.81 533.188 634.102 532.858C634.711 532.105 635.054 531.586 635.175 531.516L636.641 529.465L637.42 529.979L636.658 531.302L645.827 538.139ZM633.91 534.335C633.129 535.348 632.875 536.298 632.887 537.014C632.898 537.731 633.411 538.479 634.19 538.993C634.943 539.603 635.703 539.806 636.35 539.674C636.997 539.542 637.65 539.004 638.285 538.155C639.066 537.142 639.459 536.433 639.631 536.173L635.103 532.923C634.983 532.993 634.545 533.486 633.91 534.335ZM639.965 537.587L639.33 538.435C638.841 539.119 638.663 539.785 638.795 540.431C638.928 541.078 639.371 541.706 640.055 542.195C640.738 542.683 641.404 542.862 642.025 542.824C642.576 542.667 643.204 542.224 643.865 541.28C644.156 540.951 644.379 540.501 644.576 540.147L644.773 539.792L640.6 536.738C640.549 536.929 640.282 537.163 639.965 537.587Z" fill="black"/>
<path d="M637.051 551.881L635.807 553.483L622.852 548.993L622.027 549.791L621.274 549.181L624.346 545.319L625.1 545.928L624.242 547.226L626.922 548.25L630.311 543.963L628.704 541.598L627.588 542.724L626.834 542.115L629.589 538.677L630.342 539.286L629.752 540.35L637.051 551.881ZM633.966 550.851L635.531 551.473L634.481 550.072L630.988 544.858L628.062 548.556L633.966 550.851Z" fill="black"/>
<path d="M619.699 552.019C620.802 551.703 621.924 551.698 623.064 552.004C624.205 552.309 625.338 553.02 626.421 553.922C627.503 554.823 628.25 555.838 628.661 556.966C629.071 558.095 629.171 559.242 628.961 560.408C628.75 561.574 628.16 562.638 627.404 563.556C626.795 564.309 625.875 565.082 624.835 565.923L624.327 566.296L621.909 563.917L622.759 563.024L624.887 564.206C625.103 564.162 625.439 564.048 625.826 563.744C626.187 563.536 626.6 563.137 626.943 562.617C627.501 562.054 627.8 561.319 627.814 560.508C627.922 559.722 627.72 558.955 627.233 558.112C626.746 557.268 626.164 556.399 625.151 555.619C624.233 554.863 623.385 554.229 622.46 553.879C621.535 553.529 620.654 553.395 619.818 553.476C618.981 553.558 618.258 553.975 617.649 554.729C617.211 555.223 616.893 555.647 616.791 556.027C616.595 556.382 616.613 556.692 616.537 556.977L617.39 558.734L616.47 559.506L614.787 557.425C614.933 557.261 615.13 556.906 615.378 556.361C615.6 555.911 615.797 555.557 615.994 555.202C616.191 554.847 616.508 554.423 616.946 553.929C617.581 553.081 618.596 552.334 619.699 552.019Z" fill="black"/>
<path d="M615.784 571.952C616.099 573.055 616.13 574.082 615.875 575.032C615.62 575.983 615.176 576.882 614.376 577.584C613.526 578.477 612.562 579.034 611.579 579.28C610.597 579.526 609.501 579.436 608.481 579.06C607.461 578.685 606.422 578 605.435 577.124C604.377 576.128 603.561 574.992 603.176 573.769C602.765 572.64 602.57 571.467 602.851 570.422C603.036 569.351 603.601 568.382 604.331 567.559C605.181 566.666 606.145 566.11 607.153 565.769C608.136 565.523 609.232 565.613 610.252 565.988C611.272 566.363 612.31 567.049 613.298 567.925L615.411 565.741L611.442 561.927L610.16 562.908L609.528 562.229L613.075 558.494L613.733 559.078L612.781 560.351L621.118 568.39L622.279 567.479L622.912 568.158L619.39 571.798L618.757 571.119L619.709 569.846L616.069 566.325L613.956 568.509C614.937 569.79 615.468 570.849 615.784 571.952ZM614.609 573.675C614.319 572.476 613.459 571.125 612.003 569.717C610.711 568.454 609.388 567.692 608.127 567.456C606.866 567.22 605.763 567.535 604.913 568.428C604.062 569.321 603.808 570.271 604.098 571.469C604.388 572.667 605.248 574.018 606.799 575.452C608.091 576.715 609.319 577.452 610.555 577.783C611.79 578.114 612.798 577.773 613.648 576.88C614.499 575.988 614.779 574.942 614.609 573.675Z" fill="black"/>
<path d="M597.512 582.742C596.726 582.633 595.681 582.353 594.446 582.022C593.59 581.793 592.925 581.615 592.45 581.488C592.07 581.386 591.759 581.404 591.518 581.544L590.821 581.866L590.188 581.187L591.837 579.592C592.078 579.453 592.414 579.339 593.08 579.517C593.65 579.67 594.505 579.899 595.646 580.205C596.856 580.631 597.806 580.886 598.592 580.994C599.257 581.173 599.783 581.11 600.075 580.781L600.9 579.983L597.267 576.056L595.89 577.011L595.257 576.332L599.039 572.864L599.672 573.543L598.65 574.695L606.549 583.228L607.805 582.343L608.438 583.021L604.777 586.42L604.144 585.741L605.096 584.469L601.463 580.541L600.251 581.643L601.143 588.197L602.399 587.311L603.032 587.99L599.638 591.155L599.005 590.476L599.932 589.298L599.185 582.579C599.014 582.839 598.298 582.851 597.512 582.742Z" fill="black"/>
<path d="M588.233 583.923C589.285 583.797 590.356 583.982 591.325 584.547C592.414 585.043 593.307 585.893 594.243 586.959C595.18 588.025 595.781 589.205 596.071 590.403C596.361 591.601 596.366 592.723 595.991 593.742C595.616 594.762 595.05 595.731 594.131 596.503C592.678 597.744 591.118 598.243 589.547 598.025C587.975 597.808 586.512 596.805 585.012 595.181C584.076 594.115 583.475 592.935 583.185 591.737C582.895 590.539 582.89 589.417 583.29 588.302C583.596 587.162 584.231 586.313 585.151 585.541C586.147 584.484 587.18 584.048 588.233 583.923ZM594.794 592.505C594.625 591.237 593.885 589.817 592.55 588.339C591.309 586.886 590.106 586.054 588.896 585.628C587.686 585.202 586.608 585.423 585.689 586.195C584.769 586.967 584.394 587.987 584.563 589.254C584.733 590.522 585.472 591.943 586.782 593.516C588.023 594.969 589.226 595.8 590.436 596.227C591.672 596.558 592.749 596.337 593.669 595.565C594.589 594.793 594.964 593.773 594.794 592.505Z" fill="black"/>
<path d="M586.101 601.38L587.427 600.615L588.034 601.389L586.099 602.907C585.738 603.116 585.325 603.515 584.887 604.009C584.475 604.408 584.088 604.711 583.847 604.85C582.445 605.901 581.386 606.432 580.455 606.488C579.523 606.544 578.718 606.124 578.111 605.351C577.573 604.697 577.276 603.905 577.29 603.093C577.303 602.282 577.602 601.547 578.186 600.889C577.266 601.661 576.353 602.028 575.447 601.988C574.541 601.949 573.736 601.53 573.129 600.756C572.382 599.741 572.067 598.638 572.277 597.472C572.488 596.306 573.44 595.034 574.988 593.819C575.375 593.515 575.736 593.306 576.003 593.072C576.777 592.465 577.258 592.186 577.404 592.022L579.339 590.503L579.852 591.251L578.735 592.378L586.101 601.38ZM575.716 594.523C574.701 595.27 574.186 596.049 574.078 596.834C573.969 597.62 574.171 598.387 574.778 599.161C575.386 599.935 576 600.303 576.691 600.387C577.382 600.47 578.079 600.147 578.974 599.47C579.988 598.724 580.642 598.186 580.813 597.926L577.403 593.549C577.022 593.447 576.515 593.821 575.716 594.523ZM580.647 599.308L579.873 599.915C579.22 600.453 578.851 601.067 578.768 601.758C578.685 602.449 578.912 603.121 579.545 603.8C580.083 604.453 580.697 604.821 581.293 604.879C581.889 604.937 582.586 604.614 583.481 603.937C583.868 603.634 584.16 603.304 584.546 603.001L584.813 602.767L581.636 598.656C581.3 598.77 581.034 599.004 580.647 599.308Z" fill="black"/>
<circle cx="171.44" cy="133.395" r="2" fill="black"/>
<circle cx="575.939" cy="107.765" r="2" fill="black"/>
</g>
</svg>
